<svg xmlns="http://www.w3.org/2000/svg" xmlns:xlink="http://www.w3.org/1999/xlink" width="1212.8" height="720"><g transform="translate(0 0)"><path d="M0 0h1212.8v720H0z" fill="#fff"/><path d="M859.9 491.5h272" fill="none"/><path d="M859.9 491.5h2m4 0h4m4 0h4m4 0h4m4 0h4m4 0h4m4 0h4m4 0h4m4 0h4m4 0h4m4 0h4m4 0h4m4 0h4m4 0h4m4 0h4m4 0h4m4 0h4m4 0h4m4 0h4m4 0h4m4 0h4m4 0h4m4 0h4m4 0h4m4 0h4m4 0h4m4 0h4m4 0h4m4 0h4m4 0h4m4 0h4m4 0h4m4 0h4m4 0h4m4 0h2" stroke="#e5e5e5" fill="none"/><path d="M52.05 95c0-.26.22-.5.5-.5h94.68c.27 0 .5.24.5.5v46.55c0 .27-.23.5-.5.5H52.55c-.28 0-.5-.23-.5-.5z" stroke="#3d4752" stroke-width="2" fill="#fff"/><path d="M52.05 94.5l95.68 47.55m0-47.54l-95.68 47.55" stroke="#3d4752" stroke-width="2" fill="none"/><use xlink:href="#a" transform="matrix(1,0,0,1,61.61640338441414,118.2806302022332) translate(38.5 15.333333333333334)"/><path d="M147.9 95.6c0-.3.2-.5.5-.5h1015.1c.27 0 .5.2.5.5v45.93c0 .28-.23.5-.5.5H148.4c-.3 0-.5-.22-.5-.5z" stroke="#3d4752" stroke-width="2" fill="#fff"/><use xlink:href="#a" transform="matrix(1,0,0,1,157.89073825987668,99.7836201815096) translate(498.5 24.333333333333336)"/><path d="M165.9 101c0-.27.2-.5.5-.5h79c.27 0 .5.23.5.5v35c0 .3-.23.5-.5.5h-79c-.3 0-.5-.2-.5-.5z" fill="none"/><use xlink:href="#b" transform="matrix(1,0,0,1,170.89073825987668,105.50926174012334) translate(8.253333333333334 17.444444444444443)"/><path d="M274.9 101c0-.27.2-.5.5-.5h79c.27 0 .5.23.5.5v35c0 .3-.23.5-.5.5h-79c-.3 0-.5-.2-.5-.5z" fill="none"/><use xlink:href="#c" transform="matrix(1,0,0,1,279.8907382598767,105.50926174012334) translate(17.044444444444444 17.444444444444443)"/><path d="M374.9 101c0-.27.2-.5.5-.5h79c.27 0 .5.23.5.5v35c0 .3-.23.5-.5.5h-79c-.3 0-.5-.2-.5-.5z" fill="none"/><use xlink:href="#d" transform="matrix(1,0,0,1,379.8907382598767,105.50926174012334) translate(20.217777777777776 17.444444444444443)"/><path d="M852.28 182.85c0-.28.22-.5.5-.5h310.5c.27 0 .5.22.5.5v219.2c0 .28-.23.5-.5.5h-310.5c-.28 0-.5-.22-.5-.5z" stroke="#3d4752" stroke-width="2" fill="#fff"/><path d="M920.03 402.56c0-48.6 39.4-88 88-88s88 39.4 88 88zm132-140.8c0 24.3-19.7 44-44 44s-44-19.7-44-44 19.7-44 44-44 44 19.7 44 44z" stroke="#3d4752" stroke-width="2" fill="#bfbfbf"/><path d="M852.28 143c0-.27.23-.5.5-.5h310.76c.28 0 .5.23.5.5v258.62c0 .27-.22.5-.5.5H852.78c-.27 0-.5-.23-.5-.5z" stroke="#3d4752" stroke-width="2" fill="none"/><path d="M852.28 143c0-.27.23-.5.5-.5h310.76c.28 0 .5.23.5.5v39c0 .3-.22.5-.5.5H852.78c-.27 0-.5-.2-.5-.5z" stroke="#3d4752" stroke-width="2" fill="#fff"/><path d="M1128.04 147c0-.27.22-.5.5-.5h31c.28 0 .5.23.5.5v31c0 .3-.22.5-.5.5h-31c-.28 0-.5-.2-.5-.5zM1136.04 154.5l16 16m0-16l-16 16M1092.04 147c0-.27.22-.5.5-.5h31c.28 0 .5.23.5.5v31c0 .3-.22.5-.5.5h-31c-.28 0-.5-.2-.5-.5z" stroke="#3d4752" stroke-width="2" fill="none"/><path d="M1100.04 154.5h16v16h-16zM1056.04 147c0-.27.22-.5.5-.5h31c.28 0 .5.23.5.5v31c0 .3-.22.5-.5.5h-31c-.28 0-.5-.2-.5-.5zM1080.04 170.5h-16" stroke="#3d4752" stroke-width="2" fill="none"/><use xlink:href="#e" transform="matrix(1,0,0,1,872.2844668199857,142.50926174012332) translate(0 24.444444444444443)"/><path d="M51.9 55c0-.27.2-.5.5-.5h1111c.27 0 .5.23.5.5v607c0 .3-.23.5-.5.5H52.4c-.3 0-.5-.2-.5-.5z" stroke="#3d4752" stroke-width="2" fill="none"/><path d="M51.9 55c0-.27.2-.5.5-.5h1111c.27 0 .5.23.5.5v39c0 .3-.23.5-.5.5H52.4c-.3 0-.5-.2-.5-.5z" stroke="#3d4752" stroke-width="2" fill="#fff"/><path d="M1127.9 59c0-.27.2-.5.5-.5h31c.27 0 .5.23.5.5v31c0 .3-.23.5-.5.5h-31c-.3 0-.5-.2-.5-.5zM1135.9 66.5l16 16m0-16l-16 16M1091.9 59c0-.27.2-.5.5-.5h31c.27 0 .5.23.5.5v31c0 .3-.23.5-.5.5h-31c-.3 0-.5-.2-.5-.5z" stroke="#3d4752" stroke-width="2" fill="none"/><path d="M1099.9 66.5h16v16h-16zM1055.9 59c0-.27.2-.5.5-.5h31c.27 0 .5.23.5.5v31c0 .3-.23.5-.5.5h-31c-.3 0-.5-.2-.5-.5zM1079.9 82.5h-16" stroke="#3d4752" stroke-width="2" fill="none"/><use xlink:href="#f" transform="matrix(1,0,0,1,71.89073825987668,54.50926174012335) translate(477.2888888888889 24.444444444444443)"/><use xlink:href="#g" transform="matrix(1,0,0,1,71.89073825987668,54.50926174012335) translate(501.34222222222223 24.444444444444443)"/><use xlink:href="#h" transform="matrix(1,0,0,1,71.89073825987668,54.50926174012335) translate(558.3733333333333 24.444444444444443)"/><path d="M859.9 574.5h272" fill="none"/><path d="M859.9 574.5h2m4 0h4m4 0h4m4 0h4m4 0h4m4 0h4m4 0h4m4 0h4m4 0h4m4 0h4m4 0h4m4 0h4m4 0h4m4 0h4m4 0h4m4 0h4m4 0h4m4 0h4m4 0h4m4 0h4m4 0h4m4 0h4m4 0h4m4 0h4m4 0h4m4 0h4m4 0h4m4 0h4m4 0h4m4 0h4m4 0h4m4 0h4m4 0h4m4 0h4m4 0h2" stroke="#e5e5e5" fill="none"/><path d="M859.9 519h272" fill="none"/><path d="M859.9 519h2m4 0h4m4 0h4m4 0h4m4 0h4m4 0h4m4 0h4m4 0h4m4 0h4m4 0h4m4 0h4m4 0h4m4 0h4m4 0h4m4 0h4m4 0h4m4 0h4m4 0h4m4 0h4m4 0h4m4 0h4m4 0h4m4 0h4m4 0h4m4 0h4m4 0h4m4 0h4m4 0h4m4 0h4m4 0h4m4 0h4m4 0h4m4 0h4m4 0h4m4 0h2" stroke="#e5e5e5" fill="none"/><path d="M869.9 611.5c0-.28.2-.5.5-.5h239c.27 0 .5.22.5.5v50c0 .28-.23.5-.5.5h-239c-.3 0-.5-.22-.5-.5z" fill="none"/><use xlink:href="#i" transform="matrix(1,0,0,1,874.8907382598767,616) translate(0 24.944444444444443)"/><use xlink:href="#j" transform="matrix(1,0,0,1,874.8907382598767,616) translate(34.61333333333333 24.944444444444443)"/><use xlink:href="#k" transform="matrix(1,0,0,1,874.8907382598767,616) translate(80.05333333333333 24.944444444444443)"/><path d="M1101.5 619.5c-5.3 0-9.6 4.3-9.6 9.6v12.8c0 5.3 4.3 9.6 9.6 9.6h40.8c5.3 0 9.6-4.3 9.6-9.6v-12.8c0-5.3-4.3-9.6-9.6-9.6z" stroke="#3d4752" stroke-width="2" fill="#d6d6d6"/><use xlink:href="#l" transform="matrix(1,0,0,1,1101.8907382598768,622.7092617401233) translate(4.524444444444443 17.444444444444443)"/><path d="M51.74 142.36c0-.27.22-.5.5-.5h799.6c.3 0 .5.23.5.5v519.68c0 .27-.2.5-.5.5H52.25c-.28 0-.5-.23-.5-.5z" stroke="#3d4752" stroke-width="2" fill="none"/><path d="M51.74 142.36c0-.27.22-.5.5-.5h799.6c.3 0 .5.23.5.5v39c0 .28-.2.5-.5.5H52.25c-.28 0-.5-.22-.5-.5z" stroke="#3d4752" stroke-width="2" fill="#fff"/><path d="M816.35 146.36c0-.27.23-.5.5-.5h31c.28 0 .5.23.5.5v31c0 .28-.22.5-.5.5h-31c-.27 0-.5-.22-.5-.5zM824.35 153.86l16 16m0-16l-16 16M780.35 146.36c0-.27.23-.5.5-.5h31c.28 0 .5.23.5.5v31c0 .28-.22.5-.5.5h-31c-.27 0-.5-.22-.5-.5z" stroke="#3d4752" stroke-width="2" fill="none"/><path d="M788.35 153.86h16v16h-16zM744.35 146.36c0-.27.23-.5.5-.5h31c.28 0 .5.23.5.5v31c0 .28-.22.5-.5.5h-31c-.27 0-.5-.22-.5-.5zM768.35 169.86h-16" stroke="#3d4752" stroke-width="2" fill="none"/><use xlink:href="#m" transform="matrix(1,0,0,1,71.7366995535121,141.8622051335184) translate(0 24.444444444444443)"/><use xlink:href="#n" transform="matrix(1,0,0,1,71.7366995535121,141.8622051335184) translate(45.404444444444444 24.444444444444443)"/><path d="M652.2 567.02c0-.28.24-.5.5-.5h199.24c.27 0 .5.22.5.5v94.9c0 .26-.23.5-.5.5H652.7c-.26 0-.5-.24-.5-.5z" stroke="#3d4752" stroke-width="2" fill="#fff"/><path d="M714.33 662.4c0-20.98 17-38 38-38 20.98 0 38 17.02 38 38zm57-60.8c0 10.5-8.5 19-19 19s-19-8.5-19-19c0-10.48 8.5-19 19-19s19 8.52 19 19z" stroke="#3d4752" stroke-width="2" fill="#bfbfbf"/><path d="M51.82 182.48H651.9v384.07H51.8z" stroke="#3d4752" stroke-width="2" fill="#fff"/><path d="M51.82 566.55H651.9v96.02H51.8z" stroke="#3d4752" stroke-width="2" fill="#ababab"/><path d="M159.84 602.56h384.03c6.63 0 12 5.37 12 12s-5.37 12-12 12H159.84c-6.63 0-12-5.37-12-12s5.37-12 12-12z" fill="#3d4752"/><path d="M288 302.5l127.7 72L288 446.54z" stroke="#3d4752" stroke-width="2" fill="#ababab"/><path d="M75.83 590.55l48 24-48 24zM627.9 590.55l-48.02 24 48 24z" fill="#3d4752"/><path d="M579.88 602.56h24v24h-24z" fill="#3d4752"/><path d="M279.85 614.56c0 13.26-10.75 24-24 24-13.26 0-24-10.74-24-24s10.74-24 24-24c13.25 0 24 10.74 24 24z" stroke="#3d4752" stroke-width="2" fill="#fff"/><use xlink:href="#a" transform="matrix(1,0,0,1,111.8286460354285,494.53637602908157) translate(240.5 77.83333333333334)"/><path d="M651.95 183.3c0-.28.23-.5.5-.5h199.28c.28 0 .5.22.5.5v382.28c0 .28-.22.5-.5.5H652.45c-.27 0-.5-.22-.5-.5z" stroke="#3d4752" stroke-width="2" fill="#fff"/><path d="M651.95 182.8l200.28 383.28m0-383.28L651.95 566.08" stroke="#3d4752" stroke-width="2" fill="none"/><use xlink:href="#a" transform="matrix(1,0,0,1,671.9821791242059,374.4399450204427) translate(80.5 82.33333333333334)"/><path d="M871.9 471.65c0-.28.2-.5.5-.5h239c.27 0 .5.22.5.5v19c0 .28-.23.5-.5.5h-239c-.3 0-.5-.22-.5-.5z" fill="none"/><use xlink:href="#o" transform="matrix(1,0,0,1,876.8907382598768,476.1492617401232) translate(0 13.333333333333334)"/><use xlink:href="#p" transform="matrix(1,0,0,1,876.8907382598768,476.1492617401232) translate(45.724444444444444 13.333333333333334)"/><use xlink:href="#q" transform="matrix(1,0,0,1,876.8907382598768,476.1492617401232) translate(105.19111111111111 13.333333333333334)"/><use xlink:href="#r" transform="matrix(1,0,0,1,876.8907382598768,476.1492617401232) translate(140.23111111111112 13.333333333333334)"/><path d="M859.9 546.83h272" fill="none"/><path d="M859.9 546.83h2m4 0h4m4 0h4m4 0h4m4 0h4m4 0h4m4 0h4m4 0h4m4 0h4m4 0h4m4 0h4m4 0h4m4 0h4m4 0h4m4 0h4m4 0h4m4 0h4m4 0h4m4 0h4m4 0h4m4 0h4m4 0h4m4 0h4m4 0h4m4 0h4m4 0h4m4 0h4m4 0h4m4 0h4m4 0h4m4 0h4m4 0h4m4 0h4m4 0h4m4 0h2" stroke="#e5e5e5" fill="none"/><path d="M852.83 403c0-.27.22-.5.5-.5h310.06c.27 0 .5.23.5.5v258.9c0 .28-.23.5-.5.5H853.32c-.28 0-.5-.22-.5-.5z" stroke="#3d4752" stroke-width="2" fill="none"/><path d="M852.83 403c0-.27.22-.5.5-.5h310.06c.27 0 .5.23.5.5v39c0 .3-.23.5-.5.5H853.32c-.28 0-.5-.2-.5-.5z" stroke="#3d4752" stroke-width="2" fill="#fff"/><path d="M1127.9 407c0-.27.2-.5.5-.5h31c.27 0 .5.23.5.5v31c0 .3-.23.5-.5.5h-31c-.3 0-.5-.2-.5-.5zM1135.9 414.5l16 16m0-16l-16 16M1091.9 407c0-.27.2-.5.5-.5h31c.27 0 .5.23.5.5v31c0 .3-.23.5-.5.5h-31c-.3 0-.5-.2-.5-.5z" stroke="#3d4752" stroke-width="2" fill="none"/><path d="M1099.9 414.5h16v16h-16zM1055.9 407c0-.27.2-.5.5-.5h31c.27 0 .5.23.5.5v31c0 .3-.23.5-.5.5h-31c-.3 0-.5-.2-.5-.5zM1079.9 430.5h-16" stroke="#3d4752" stroke-width="2" fill="none"/><use xlink:href="#s" transform="matrix(1,0,0,1,872.8253754766671,402.5092617401233) translate(0 24.444444444444443)"/><path d="M871.9 527c0-.27.2-.5.5-.5h239c.27 0 .5.23.5.5v19c0 .3-.23.5-.5.5h-239c-.3 0-.5-.2-.5-.5z" fill="none"/><use xlink:href="#o" transform="matrix(1,0,0,1,876.8907382598766,531.5092617401233) translate(0 13.333333333333334)"/><use xlink:href="#t" transform="matrix(1,0,0,1,876.8907382598766,531.5092617401233) translate(45.724444444444444 13.333333333333334)"/><use xlink:href="#u" transform="matrix(1,0,0,1,876.8907382598766,531.5092617401233) translate(56.72888888888889 13.333333333333334)"/><use xlink:href="#v" transform="matrix(1,0,0,1,876.8907382598766,531.5092617401233) translate(87.39555555555555 13.333333333333334)"/><use xlink:href="#w" transform="matrix(1,0,0,1,876.8907382598766,531.5092617401233) translate(136.64 13.333333333333334)"/><use xlink:href="#x" transform="matrix(1,0,0,1,876.8907382598766,531.5092617401233) translate(166.7022222222222 13.333333333333334)"/><path d="M871.9 583c0-.27.2-.5.5-.5h239c.27 0 .5.23.5.5v19c0 .3-.23.5-.5.5h-239c-.3 0-.5-.2-.5-.5z" fill="none"/><use xlink:href="#y" transform="matrix(1,0,0,1,876.8907382598768,587.5092617401233) translate(0 13.333333333333334)"/><use xlink:href="#z" transform="matrix(1,0,0,1,876.8907382598768,587.5092617401233) translate(46.64888888888889 13.333333333333334)"/><use xlink:href="#A" transform="matrix(1,0,0,1,876.8907382598768,587.5092617401233) translate(84.8 13.333333333333334)"/><use xlink:href="#B" transform="matrix(1,0,0,1,876.8907382598768,587.5092617401233) translate(109.49333333333333 13.333333333333334)"/><use xlink:href="#C" transform="matrix(1,0,0,1,876.8907382598768,587.5092617401233) translate(141.44 13.333333333333334)"/><use xlink:href="#D" transform="matrix(1,0,0,1,876.8907382598768,587.5092617401233) translate(161.31555555555556 13.333333333333334)"/><path d="M871.9 499.5c0-.3.2-.5.5-.5h239c.27 0 .5.2.5.5v19c0 .27-.23.5-.5.5h-239c-.3 0-.5-.23-.5-.5z" fill="none"/><g><use xlink:href="#y" transform="matrix(1,0,0,1,876.8907382598768,503.98926174012325) translate(0 13.333333333333334)"/><use xlink:href="#E" transform="matrix(1,0,0,1,876.8907382598768,503.98926174012325) translate(46.64888888888889 13.333333333333334)"/><use xlink:href="#F" transform="matrix(1,0,0,1,876.8907382598768,503.98926174012325) translate(70.93333333333334 13.333333333333334)"/><use xlink:href="#G" transform="matrix(1,0,0,1,876.8907382598768,503.98926174012325) translate(103.02222222222223 13.333333333333334)"/><use xlink:href="#H" transform="matrix(1,0,0,1,876.8907382598768,503.98926174012325) translate(136.96 13.333333333333334)"/></g><path d="M871.9 555.17c0-.28.2-.5.5-.5h239c.27 0 .5.22.5.5v19c0 .28-.23.5-.5.5h-239c-.3 0-.5-.22-.5-.5z" fill="none"/><g><use xlink:href="#I" transform="matrix(1,0,0,1,876.8907382598768,559.6692617401233) translate(0 13.333333333333334)"/><use xlink:href="#J" transform="matrix(1,0,0,1,876.8907382598768,559.6692617401233) translate(23.928888888888885 13.333333333333334)"/><use xlink:href="#K" transform="matrix(1,0,0,1,876.8907382598768,559.6692617401233) translate(82.09777777777778 13.333333333333334)"/></g><path d="M852.52 403c0-.27.22-.5.5-.5h310.26c.27 0 .5.23.5.5v207c0 .3-.23.5-.5.5H853.02c-.28 0-.5-.2-.5-.5z" stroke="#3d4752" stroke-width="2" fill="none"/><path d="M1135.9 443c0-.27.2-.5.5-.5h27c.27 0 .5.23.5.5v167c0 .3-.23.5-.5.5h-27c-.3 0-.5-.2-.5-.5z" stroke="#3d4752" stroke-width="2" fill="#fff"/><path d="M1139.9 447c0-.27.2-.5.5-.5h19c.27 0 .5.23.5.5v19c0 .3-.23.5-.5.5h-19c-.3 0-.5-.2-.5-.5z" stroke="#3d4752" stroke-width="2" fill="none"/><path d="M1143.9 460.5h12l-6-8z" stroke="#3d4752" stroke-width="2" fill="#3d4752"/><path d="M1139.9 471c0-.27.2-.5.5-.5h19c.27 0 .5.23.5.5v59c0 .3-.23.5-.5.5h-19c-.3 0-.5-.2-.5-.5zM1143.9 496.5h12m-12 4h12m-12 4h12M1139.9 606c0 .3.2.5.5.5h19c.27 0 .5-.2.5-.5v-19c0-.27-.23-.5-.5-.5h-19c-.3 0-.5.23-.5.5z" stroke="#3d4752" stroke-width="2" fill="none"/><path d="M1143.9 592.5h12l-6 8z" stroke="#3d4752" stroke-width="2" fill="#3d4752"/><defs><path fill="#3d4752" d="M173-25c9 46-57 17-88 25-26 0-25 1-24-25l12-490c1-26 0-25 26-25h145c26 0 25-1 31 24l84 364c-2 7 16 8 15 0l85-364c6-25 5-24 31-24h141c26 0 25-1 26 25l12 490c12 46-57 16-87 25-26 0-25 1-26-25l-10-389c4-11-19-10-18 0L436-40c-6 25-5 24-31 24h-79c-26 0-25 1-31-24l-95-376c2-10-20-11-18 0" id="L"/><path fill="#3d4752" d="M377-222c-1 18 1 42-15 42H161c-21 0-20-1-18 20 5 64 38 94 92 94 32 0 69-6 91-15 33-14 25 9 29 34s4 24-20 33C310-4 264 9 204 10 108 11 30-64 30-197s75-205 179-205 168 60 168 180zM212-337c-31 0-63 7-67 83-2 21-2 20 18 19l86-3c21-1 20 0 18-21-4-54-25-78-55-78" id="M"/><path fill="#3d4752" d="M255-2C175 21 89 7 89-95v-209c7-29-16-20-38-20-23 0-21 0-21-23-10-41 61-19 62-61 13-26 2-75 42-69 23 3 73-25 62 18 7 25-17 80 20 72 27 5 71-15 60 25-1 27 7 44-25 38-22 5-64-14-55 20v201c0 32 24 35 49 30 33-15 23 19 31 40 4 26 5 24-21 31" id="N"/><path fill="#3d4752" d="M189-509c0 33-28 60-61 60-36 0-63-27-63-60 0-34 27-60 63-60 33 0 61 26 61 60zm-3 484c11 45-50 17-79 25-26 0-25 1-25-25v-269c2-23-3-21-24-25-27-5-22-8-23-35 0-26-1-25 25-27l101-7c26-2 25-3 25 23v340" id="O"/><path fill="#3d4752" d="M237-332c-33 0-67-2-67 31v276c11 46-55 17-85 25-26 0-25 1-25-25v-344c-10-38 29-24 54-31 31-16 40 44 69 19 95-40 227-32 227 116v240c11 46-55 17-85 25-26 0-25 1-25-25v-235c0-59-21-72-63-72" id="P"/><path fill="#3d4752" d="M390 38c0 106-84 153-189 153S20 152 20 75C20 28 56 6 79-4c17-7 16-7 4-19-11-11-22-28-22-54 0-25 17-44 31-55 15-12 15-11-1-21-35-23-57-66-57-115 0-82 63-134 158-134 36 0 69 6 96 20 31 16 51-24 80-26 38-24 20 25 24 50 5 30-7 24-33 27-39-5 3 43-7 63 0 74-51 132-169 132-20 0-36 7-36 25 0 64 243-10 243 149zM137 15c-45 40-7 103 64 103 46 0 86-15 85-59-1-41-49-48-119-54-17-1-18-1-30 10zm-2-284c1 40 17 69 57 69s58-29 58-69-16-70-58-70c-41 0-57 30-57 70" id="Q"/><g id="b"><use transform="matrix(0.017777777777777778,0,0,0.017777777777777778,0,0)" xlink:href="#L"/><use transform="matrix(0.017777777777777778,0,0,0.017777777777777778,12.853333333333333,0)" xlink:href="#M"/><use transform="matrix(0.017777777777777778,0,0,0.017777777777777778,20.177777777777777,0)" xlink:href="#M"/><use transform="matrix(0.017777777777777778,0,0,0.017777777777777778,27.502222222222223,0)" xlink:href="#N"/><use transform="matrix(0.017777777777777778,0,0,0.017777777777777778,33.08444444444444,0)" xlink:href="#O"/><use transform="matrix(0.017777777777777778,0,0,0.017777777777777778,37.742222222222225,0)" xlink:href="#P"/><use transform="matrix(0.017777777777777778,0,0,0.017777777777777778,46.09777777777778,0)" xlink:href="#Q"/></g><path fill="#3d4752" d="M238-183c-23 7-65-23-65 15v143c10 46-57 16-88 25-26 0-25 1-25-25v-491c0-26-1-26 25-27 32-2 91-4 153-4 114 0 188 78 188 176 0 107-80 188-188 188zm-70-98c-8 32 31 18 55 23 63 0 93-50 93-108 0-68-47-113-129-101-20 3-19 1-19 21v165" id="R"/><path fill="#3d4752" d="M230-19c-18 12-51 29-95 29C69 10 25-36 25-107c0-103 103-125 195-111 33 14 14-34 18-55 12-70-114-64-158-38-31 19-25-8-29-32-5-25-4-22 19-33 90-43 276-38 276 93v210c-2 20 3 19 20 15 23-6 19 5 24 23 6 22 5 20-15 30-30 16-105 24-119-10-12-14-10-14-26-4zm-49-43c23-5 65-3 57-34-6-24 18-74-20-69-56 7-89 20-89 58 0 30 21 45 52 45" id="S"/><path fill="#3d4752" d="M321-114C321 6 168 28 69-5 34-5 48-29 48-58c0-26 1-25 26-18 46 13 142 35 142-26 0-66-181-49-181-180-1-107 131-137 231-107 33 1 21 17 18 44-3 25-3 26-28 20-40-10-123-14-123 32 0 59 188 50 188 179" id="T"/><g id="c"><use transform="matrix(0.017777777777777778,0,0,0.017777777777777778,0,0)" xlink:href="#R"/><use transform="matrix(0.017777777777777778,0,0,0.017777777777777778,7.306666666666666,0)" xlink:href="#S"/><use transform="matrix(0.017777777777777778,0,0,0.017777777777777778,14.773333333333333,0)" xlink:href="#Q"/><use transform="matrix(0.017777777777777778,0,0,0.017777777777777778,22.08,0)" xlink:href="#M"/><use transform="matrix(0.017777777777777778,0,0,0.017777777777777778,29.58222222222222,0)" xlink:href="#T"/></g><path fill="#3d4752" d="M171-25c10 46-56 17-86 25-26 0-25 1-25-25v-490c-10-46 56-17 86-25 26 0 25-1 25 25v171c0 21-1 20 20 20h161c21 0 20 1 20-20v-171c-10-46 56-17 86-25 26 0 25-1 25 25v490c10 46-56 17-86 25-26 0-25 1-25-25v-195c0-21 1-20-20-20H191c-21 0-20-1-20 20v195" id="U"/><path fill="#3d4752" d="M171-25c10 46-56 17-86 25-26 0-25 1-25-25v-546c0-26-1-25 25-27l61-6c26-2 25-3 25 23v556" id="V"/><path fill="#3d4752" d="M169 160c11 45-54 17-84 25-26 0-25 1-25-25v-529c-10-37 27-24 52-31 32-16 43 44 72 18 17-9 48-20 82-20 55 0 160 39 160 190C426-47 329 16 188-4c-20-3-19-4-19 16v148zm-2-254c-8 31 29 21 53 24 116 14 116-260 17-260-23 0-40 3-52 6-19 5-18 4-18 23v207" id="W"/><g id="d"><use transform="matrix(0.017777777777777778,0,0,0.017777777777777778,0,0)" xlink:href="#U"/><use transform="matrix(0.017777777777777778,0,0,0.017777777777777778,9.795555555555556,0)" xlink:href="#M"/><use transform="matrix(0.017777777777777778,0,0,0.017777777777777778,17.12,0)" xlink:href="#V"/><use transform="matrix(0.017777777777777778,0,0,0.017777777777777778,21.404444444444444,0)" xlink:href="#W"/></g><path fill="#3d4752" d="M287 0H183c-26 0-25 1-31-24L31-516c-6-25-7-24 19-24 37 8 103-20 102 24l87 366c4 18 5 18 9 0l87-351c6-25 5-24 31-24h95c26 0 25-1 30 24l79 350c4 19 5 19 9 1l87-366c-1-45 65-15 102-24 26 0 25-1 18 24-28 108-92 383-120 492-6 25-5 24-31 24H531c-26 0-25 1-31-24l-86-374c-4-18-4-18-9 0L318-24c-6 25-5 24-31 24" id="X"/><path fill="#3d4752" d="M424-212C424 7 255 31 85 1 59-3 60-2 60-28c0-85 1-371 1-547-11-45 54-17 84-25 26 0 25-1 25 25v173c0 20-1 20 19 13 115-36 235 3 235 177zM168-85c-4 30 31 24 60 24 58 0 85-63 85-142 0-76-35-129-87-129-28 0-58-5-58 27v220" id="Y"/><path fill="#3d4752" d="M218 8C105 10 39-51 39-191c0-170 107-231 260-204 37-2 16 23 16 48 0 43-39 12-67 18-65 0-101 31-101 132 0 68 18 132 99 132 21 0 42-2 57-6 30-9 24 3 27 28s3 24-20 32-56 19-92 19" id="Z"/><path fill="#3d4752" d="M223-332c-22 5-62 1-53 32v275c11 46-55 17-85 25-26 0-25 1-25-25v-344c-10-38 29-24 54-31 30-16 39 45 67 19 48-28 118-30 173 2 17 10 15 11 32 2 27-15 62-25 100-25 45 0 130 1 130 131v246c11 46-55 17-85 25-26 0-25 1-25-25v-246c0-62-38-61-61-61-21 4-61 2-52 32v275c11 45-54 17-84 25-26 0-25 1-25-25v-246c0-59-34-61-61-61" id="aa"/><g id="e"><use transform="matrix(0.017777777777777778,0,0,0.017777777777777778,0,0)" xlink:href="#X"/><use transform="matrix(0.017777777777777778,0,0,0.017777777777777778,13.742222222222221,0)" xlink:href="#M"/><use transform="matrix(0.017777777777777778,0,0,0.017777777777777778,21.066666666666666,0)" xlink:href="#Y"/><use transform="matrix(0.017777777777777778,0,0,0.017777777777777778,29.26222222222222,0)" xlink:href="#Z"/><use transform="matrix(0.017777777777777778,0,0,0.017777777777777778,35.68,0)" xlink:href="#S"/><use transform="matrix(0.017777777777777778,0,0,0.017777777777777778,43.14666666666667,0)" xlink:href="#aa"/></g><path fill="#3d4752" d="M203 162c-3 41-52 19-86 19-26 0-25 0-16-24l68-181c10-17-21 0-19-16L14-372c-9-24-10-23 16-23 37 0 87-17 90 23l81 201c7 19 8 19 14 0l74-201c3-41 54-23 92-23 26 0 25-1 16 23" id="ab"/><g id="f"><use transform="matrix(0.017777777777777778,0,0,0.017777777777777778,0,0)" xlink:href="#L"/><use transform="matrix(0.017777777777777778,0,0,0.017777777777777778,12.853333333333333,0)" xlink:href="#ab"/></g><g id="g"><use transform="matrix(0.017777777777777778,0,0,0.017777777777777778,0,0)" xlink:href="#L"/><use transform="matrix(0.017777777777777778,0,0,0.017777777777777778,12.853333333333333,0)" xlink:href="#M"/><use transform="matrix(0.017777777777777778,0,0,0.017777777777777778,20.177777777777777,0)" xlink:href="#M"/><use transform="matrix(0.017777777777777778,0,0,0.017777777777777778,27.502222222222223,0)" xlink:href="#N"/><use transform="matrix(0.017777777777777778,0,0,0.017777777777777778,33.08444444444444,0)" xlink:href="#O"/><use transform="matrix(0.017777777777777778,0,0,0.017777777777777778,37.742222222222225,0)" xlink:href="#P"/><use transform="matrix(0.017777777777777778,0,0,0.017777777777777778,46.09777777777778,0)" xlink:href="#Q"/></g><path fill="#3d4752" d="M173-25c10 46-57 16-88 25-26 0-25 1-25-25v-490c0-26-1-25 25-27 33-2 96-5 159-5 117 0 182 74 182 164 0 69-43 116-90 142-17 9-17 8-7 25 26 41 90 146 120 195 13 21 13 21-12 21-43 0-103 19-114-22l-95-178c-9-20-14-17-35-17s-20-1-20 20v172zm-5-282c-7 32 32 16 58 21 59 0 90-38 90-90 0-65-46-103-128-91-21 2-20 1-20 22v138" id="ac"/><path fill="#3d4752" d="M415-197C415-78 341 9 222 9 104 9 30-78 30-197s75-205 192-205c118 0 193 86 193 205zm-273 0c0 68 13 138 80 138 68 0 79-70 79-138 0-69-10-137-79-137-68 0-80 68-80 137" id="ad"/><g id="h"><use transform="matrix(0.017777777777777778,0,0,0.017777777777777778,0,0)" xlink:href="#ac"/><use transform="matrix(0.017777777777777778,0,0,0.017777777777777778,8.266666666666667,0)" xlink:href="#ad"/><use transform="matrix(0.017777777777777778,0,0,0.017777777777777778,16.24888888888889,0)" xlink:href="#ad"/><use transform="matrix(0.017777777777777778,0,0,0.017777777777777778,24.23111111111111,0)" xlink:href="#aa"/></g><path fill="#3d4752" d="M375-165C375-5 203 35 64-4 25-3 43-41 43-71c0-25 0-24 25-18 23 6 59 13 87 13 46 0 109-8 109-68 0-93-239-85-239-247-1-148 153-174 283-148 38-2 22 27 20 54-2 25-2 26-28 21-59-11-166-12-166 52 0 89 241 82 241 247" id="ae"/><path fill="#3d4752" d="M169-25c11 45-54 17-84 25-26 0-25 1-25-25v-344c-9-35 22-24 48-30 28-7 31 5 44 25 12 17 11 16 27 4s42-25 71-36c46-18 12 43 16 65 7 45-54 24-78 38-20 5-19 4-19 25v253" id="af"/><g id="i"><use transform="matrix(0.017777777777777778,0,0,0.017777777777777778,0,0)" xlink:href="#ae"/><use transform="matrix(0.017777777777777778,0,0,0.017777777777777778,6.933333333333334,0)" xlink:href="#N"/><use transform="matrix(0.017777777777777778,0,0,0.017777777777777778,12.515555555555556,0)" xlink:href="#S"/><use transform="matrix(0.017777777777777778,0,0,0.017777777777777778,19.982222222222223,0)" xlink:href="#af"/><use transform="matrix(0.017777777777777778,0,0,0.017777777777777778,25.493333333333332,0)" xlink:href="#N"/></g><g id="j"><use transform="matrix(0.017777777777777778,0,0,0.017777777777777778,0,0)" xlink:href="#N"/><use transform="matrix(0.017777777777777778,0,0,0.017777777777777778,5.671111111111111,0)" xlink:href="#ab"/><use transform="matrix(0.017777777777777778,0,0,0.017777777777777778,13.333333333333332,0)" xlink:href="#W"/><use transform="matrix(0.017777777777777778,0,0,0.017777777777777778,21.493333333333332,0)" xlink:href="#O"/><use transform="matrix(0.017777777777777778,0,0,0.017777777777777778,26.15111111111111,0)" xlink:href="#P"/><use transform="matrix(0.017777777777777778,0,0,0.017777777777777778,34.50666666666667,0)" xlink:href="#Q"/></g><path fill="#3d4752" d="M169-25c11 45-54 17-84 25-26 0-25 1-25-25v-550c-11-45 53-17 83-25 26 0 25-1 25 25v183c0 11 0 16 3 16 7 0 48-26 101-26 49 0 132 24 132 153v224c11 45-53 17-83 25-26 0-25 1-25-25v-224c0-62-25-83-66-83-44 0-61 9-61 31v276" id="ag"/><path fill="#3d4752" d="M147-51c0 31-26 56-57 56-33 0-58-25-58-56s25-56 58-56c31 0 57 25 57 56" id="ah"/><g id="k"><use transform="matrix(0.017777777777777778,0,0,0.017777777777777778,0,0)" xlink:href="#ag"/><use transform="matrix(0.017777777777777778,0,0,0.017777777777777778,8.248888888888889,0)" xlink:href="#M"/><use transform="matrix(0.017777777777777778,0,0,0.017777777777777778,15.573333333333334,0)" xlink:href="#af"/><use transform="matrix(0.017777777777777778,0,0,0.017777777777777778,20.817777777777778,0)" xlink:href="#M"/><use transform="matrix(0.017777777777777778,0,0,0.017777777777777778,28.142222222222223,0)" xlink:href="#ah"/><use transform="matrix(0.017777777777777778,0,0,0.017777777777777778,31.76888888888889,0)" xlink:href="#ah"/><use transform="matrix(0.017777777777777778,0,0,0.017777777777777778,35.39555555555555,0)" xlink:href="#ah"/></g><path fill="#3d4752" d="M271-14C151 45 30 1 30-199c0-146 94-203 166-203 30 0 53 6 69 12 20 7 19 8 19-13v-172c-11-45 53-17 82-25 26 0 25-1 25 25v545c11 39-33 24-58 32-29 18-35-45-62-16zm14-288c5-33-31-25-64-28-104-10-104 276-4 269 32-2 68 0 68-33v-208" id="ai"/><g id="l"><use transform="matrix(0.017777777777777778,0,0,0.017777777777777778,0,0)" xlink:href="#ae"/><use transform="matrix(0.017777777777777778,0,0,0.017777777777777778,7.2,0)" xlink:href="#M"/><use transform="matrix(0.017777777777777778,0,0,0.017777777777777778,14.524444444444445,0)" xlink:href="#P"/><use transform="matrix(0.017777777777777778,0,0,0.017777777777777778,22.880000000000003,0)" xlink:href="#ai"/></g><g id="m"><use transform="matrix(0.017777777777777778,0,0,0.017777777777777778,0,0)" xlink:href="#ae"/><use transform="matrix(0.017777777777777778,0,0,0.017777777777777778,7.2,0)" xlink:href="#Z"/><use transform="matrix(0.017777777777777778,0,0,0.017777777777777778,13.617777777777778,0)" xlink:href="#af"/><use transform="matrix(0.017777777777777778,0,0,0.017777777777777778,18.862222222222222,0)" xlink:href="#M"/><use transform="matrix(0.017777777777777778,0,0,0.017777777777777778,26.186666666666667,0)" xlink:href="#M"/><use transform="matrix(0.017777777777777778,0,0,0.017777777777777778,33.51111111111111,0)" xlink:href="#P"/></g><g id="n"><use transform="matrix(0.017777777777777778,0,0,0.017777777777777778,0,0)" xlink:href="#ae"/><use transform="matrix(0.017777777777777778,0,0,0.017777777777777778,7.2,0)" xlink:href="#ag"/><use transform="matrix(0.017777777777777778,0,0,0.017777777777777778,15.448888888888888,0)" xlink:href="#S"/><use transform="matrix(0.017777777777777778,0,0,0.017777777777777778,22.915555555555557,0)" xlink:href="#af"/><use transform="matrix(0.017777777777777778,0,0,0.017777777777777778,28.42666666666667,0)" xlink:href="#O"/><use transform="matrix(0.017777777777777778,0,0,0.017777777777777778,33.08444444444444,0)" xlink:href="#P"/><use transform="matrix(0.017777777777777778,0,0,0.017777777777777778,41.44,0)" xlink:href="#Q"/></g><path fill="#3d4752" d="M312 0H85C59 0 60 1 60-25v-490c-10-46 57-17 87-25 26 0 25-1 25 25v409c0 21-1 20 20 20 33 0 88-1 123-2 41-11 18 37 23 63-1 26 0 25-26 25" id="aj"/><path fill="#3d4752" d="M144-51c0 31-27 56-57 56-33 0-58-25-58-56s25-56 58-56c30 0 57 25 57 56zm0-238c0 31-27 56-57 56-33 0-58-25-58-56s25-56 58-56c30 0 57 25 57 56" id="ak"/><g id="o"><use transform="matrix(0.017777777777777778,0,0,0.017777777777777778,0,0)" xlink:href="#aj"/><use transform="matrix(0.017777777777777778,0,0,0.017777777777777778,6.5777777777777775,0)" xlink:href="#ad"/><use transform="matrix(0.017777777777777778,0,0,0.017777777777777778,14.559999999999999,0)" xlink:href="#af"/><use transform="matrix(0.017777777777777778,0,0,0.017777777777777778,19.80444444444444,0)" xlink:href="#M"/><use transform="matrix(0.017777777777777778,0,0,0.017777777777777778,27.128888888888888,0)" xlink:href="#aa"/><use transform="matrix(0.017777777777777778,0,0,0.017777777777777778,39.23555555555556,0)" xlink:href="#ak"/></g><path fill="#3d4752" d="M250 0h-84c-26 0-25 1-33-24L23-371c-25-44 47-16 73-24 26 0 25-1 32 24l74 246c6 19 6 19 12 0l76-246c0-42 52-24 88-24 26 0 25-1 17 24L283-24c-8 25-7 24-33 24" id="al"/><g id="p"><use transform="matrix(0.017777777777777778,0,0,0.017777777777777778,0,0)" xlink:href="#aj"/><use transform="matrix(0.017777777777777778,0,0,0.017777777777777778,6.5777777777777775,0)" xlink:href="#M"/><use transform="matrix(0.017777777777777778,0,0,0.017777777777777778,13.90222222222222,0)" xlink:href="#al"/><use transform="matrix(0.017777777777777778,0,0,0.017777777777777778,21.084444444444443,0)" xlink:href="#M"/><use transform="matrix(0.017777777777777778,0,0,0.017777777777777778,28.40888888888889,0)" xlink:href="#af"/><use transform="matrix(0.017777777777777778,0,0,0.017777777777777778,33.83111111111111,0)" xlink:href="#S"/><use transform="matrix(0.017777777777777778,0,0,0.017777777777777778,41.297777777777775,0)" xlink:href="#Q"/><use transform="matrix(0.017777777777777778,0,0,0.017777777777777778,48.60444444444445,0)" xlink:href="#M"/></g><g id="q"><use transform="matrix(0.017777777777777778,0,0,0.017777777777777778,0,0)" xlink:href="#S"/><use transform="matrix(0.017777777777777778,0,0,0.017777777777777778,7.466666666666667,0)" xlink:href="#Q"/><use transform="matrix(0.017777777777777778,0,0,0.017777777777777778,15.235555555555555,0)" xlink:href="#O"/><use transform="matrix(0.017777777777777778,0,0,0.017777777777777778,19.89333333333333,0)" xlink:href="#V"/><use transform="matrix(0.017777777777777778,0,0,0.017777777777777778,24.177777777777777,0)" xlink:href="#M"/></g><path fill="#3d4752" d="M199-25c11 45-53 17-83 25-26 0-25 1-25-25v-279c8-30-20-20-42-20-23 0-21 0-21-23-13-43 65-16 58-62-5-35-6-71-6-95 0-109 114-141 210-113 32 2 21 16 14 39 0 38-31 19-60 19-81 0-57 92-52 152-5 34 35 15 61 20 32-5 24 11 25 38 11 40-31 25-59 25-21 0-20-1-20 20v279" id="am"/><path fill="#3d4752" d="M217 0h-79c-26 0-25 1-31-24-20-81-65-266-86-347-6-25-7-24 19-24 34 7 91-19 88 24l52 239c5 19 5 19 10 0 17-56 46-181 61-240-1-42 59-15 94-23 26 0 25-1 31 24l64 239c5 18 6 18 10-1l54-238c-3-42 52-17 86-24 26 0 25-1 19 24L525-24c-6 25-5 24-31 24h-80c-26 0-25 1-31-24l-62-237c-5-18-6-18-11 0L248-24c-6 25-5 24-31 24" id="an"/><path fill="#3d4752" d="M169-25c11 45-54 17-84 25-26 0-25 1-25-25v-550c-11-45 54-17 84-25 26 0 25-1 25 25v312c-4 17 26 14 29 2l81-114c14-35 61-20 102-20 25 0 25 0 10 20l-97 136c-12 17-12 15-1 33L415-21c14 21 14 21-11 21-42 0-98 17-110-21l-91-147c-7-12-8-11-21-11-14 0-13-1-13 12v142" id="ao"/><g id="r"><use transform="matrix(0.017777777777777778,0,0,0.017777777777777778,0,0)" xlink:href="#am"/><use transform="matrix(0.017777777777777778,0,0,0.017777777777777778,5.493333333333333,0)" xlink:href="#af"/><use transform="matrix(0.017777777777777778,0,0,0.017777777777777778,10.915555555555558,0)" xlink:href="#S"/><use transform="matrix(0.017777777777777778,0,0,0.017777777777777778,18.382222222222225,0)" xlink:href="#aa"/><use transform="matrix(0.017777777777777778,0,0,0.017777777777777778,30.488888888888894,0)" xlink:href="#M"/><use transform="matrix(0.017777777777777778,0,0,0.017777777777777778,37.81333333333334,0)" xlink:href="#an"/><use transform="matrix(0.017777777777777778,0,0,0.017777777777777778,48.99555555555556,0)" xlink:href="#ad"/><use transform="matrix(0.017777777777777778,0,0,0.017777777777777778,56.977777777777774,0)" xlink:href="#af"/><use transform="matrix(0.017777777777777778,0,0,0.017777777777777778,62.488888888888894,0)" xlink:href="#ao"/><use transform="matrix(0.017777777777777778,0,0,0.017777777777777778,70.24000000000001,0)" xlink:href="#T"/><use transform="matrix(0.017777777777777778,0,0,0.017777777777777778,76.56888888888889,0)" xlink:href="#ah"/></g><path fill="#3d4752" d="M395-16C218 44 30 11 30-266c0-220 152-320 351-268 39-1 16 33 13 57-3 26-4 25-30 21-138-22-212 9-212 189 0 175 99 212 231 174 36-20 23 22 31 43 3 26 5 26-19 34" id="ap"/><g id="s"><use transform="matrix(0.017777777777777778,0,0,0.017777777777777778,0,0)" xlink:href="#ap"/><use transform="matrix(0.017777777777777778,0,0,0.017777777777777778,8.248888888888889,0)" xlink:href="#ag"/><use transform="matrix(0.017777777777777778,0,0,0.017777777777777778,16.497777777777777,0)" xlink:href="#S"/><use transform="matrix(0.017777777777777778,0,0,0.017777777777777778,23.60888888888889,0)" xlink:href="#N"/></g><use transform="matrix(0.017777777777777778,0,0,0.017777777777777778,0,0)" xlink:href="#S" id="t"/><g id="u"><use transform="matrix(0.017777777777777778,0,0,0.017777777777777778,0,0)" xlink:href="#P"/><use transform="matrix(0.017777777777777778,0,0,0.017777777777777778,8.355555555555556,0)" xlink:href="#M"/><use transform="matrix(0.017777777777777778,0,0,0.017777777777777778,15.68,0)" xlink:href="#an"/></g><g id="v"><use transform="matrix(0.017777777777777778,0,0,0.017777777777777778,0,0)" xlink:href="#P"/><use transform="matrix(0.017777777777777778,0,0,0.017777777777777778,8.355555555555556,0)" xlink:href="#ad"/><use transform="matrix(0.017777777777777778,0,0,0.017777777777777778,16.337777777777777,0)" xlink:href="#af"/><use transform="matrix(0.017777777777777778,0,0,0.017777777777777778,21.848888888888887,0)" xlink:href="#aa"/><use transform="matrix(0.017777777777777778,0,0,0.017777777777777778,33.955555555555556,0)" xlink:href="#S"/><use transform="matrix(0.017777777777777778,0,0,0.017777777777777778,41.422222222222224,0)" xlink:href="#V"/></g><g id="w"><use transform="matrix(0.017777777777777778,0,0,0.017777777777777778,0,0)" xlink:href="#N"/><use transform="matrix(0.017777777777777778,0,0,0.017777777777777778,5.582222222222223,0)" xlink:href="#ag"/><use transform="matrix(0.017777777777777778,0,0,0.017777777777777778,13.831111111111111,0)" xlink:href="#S"/><use transform="matrix(0.017777777777777778,0,0,0.017777777777777778,20.942222222222224,0)" xlink:href="#N"/></g><g id="x"><use transform="matrix(0.017777777777777778,0,0,0.017777777777777778,0,0)" xlink:href="#ag"/><use transform="matrix(0.017777777777777778,0,0,0.017777777777777778,8.248888888888889,0)" xlink:href="#S"/><use transform="matrix(0.017777777777777778,0,0,0.017777777777777778,15.715555555555556,0)" xlink:href="#T"/></g><path fill="#3d4752" d="M245-497c13 40-54 5-41 45v366c-1 21 0 22 22 22 27 0 19 15 19 39 0 26 1 25-25 25H75C42 7 52-14 50-41c-13-40 54-5 41-45v-366c14-40-55-7-41-45 2-27-9-50 25-43h145c34-7 23 16 25 43" id="aq"/><path fill="#3d4752" d="M223-61c33 0 69 2 69-32v-277c-11-45 53-17 82-25 26 0 25-1 25 25v345c10 37-28 21-50 32-34 16-38-46-68-22-25 11-68 26-113 26-64 0-113-45-113-145v-231c-10-45 54-19 82-29 26-1 25-2 25 24v231c0 62 20 78 61 78" id="ar"/><g id="y"><use transform="matrix(0.017777777777777778,0,0,0.017777777777777778,0,0)" xlink:href="#aq"/><use transform="matrix(0.017777777777777778,0,0,0.017777777777777778,5.155555555555556,0)" xlink:href="#W"/><use transform="matrix(0.017777777777777778,0,0,0.017777777777777778,13.493333333333334,0)" xlink:href="#T"/><use transform="matrix(0.017777777777777778,0,0,0.017777777777777778,19.822222222222223,0)" xlink:href="#ar"/><use transform="matrix(0.017777777777777778,0,0,0.017777777777777778,28.053333333333335,0)" xlink:href="#aa"/><use transform="matrix(0.017777777777777778,0,0,0.017777777777777778,40.16,0)" xlink:href="#ak"/></g><g id="z"><use transform="matrix(0.017777777777777778,0,0,0.017777777777777778,0,0)" xlink:href="#ap"/><use transform="matrix(0.017777777777777778,0,0,0.017777777777777778,8.248888888888889,0)" xlink:href="#V"/><use transform="matrix(0.017777777777777778,0,0,0.017777777777777778,12.533333333333333,0)" xlink:href="#ad"/><use transform="matrix(0.017777777777777778,0,0,0.017777777777777778,20.69333333333333,0)" xlink:href="#T"/><use transform="matrix(0.017777777777777778,0,0,0.017777777777777778,27.288888888888884,0)" xlink:href="#M"/></g><g id="A"><use transform="matrix(0.017777777777777778,0,0,0.017777777777777778,0,0)" xlink:href="#N"/><use transform="matrix(0.017777777777777778,0,0,0.017777777777777778,5.582222222222223,0)" xlink:href="#ag"/><use transform="matrix(0.017777777777777778,0,0,0.017777777777777778,13.831111111111111,0)" xlink:href="#M"/></g><g id="B"><use transform="matrix(0.017777777777777778,0,0,0.017777777777777778,0,0)" xlink:href="#V"/><use transform="matrix(0.017777777777777778,0,0,0.017777777777777778,4.2844444444444445,0)" xlink:href="#ad"/><use transform="matrix(0.017777777777777778,0,0,0.017777777777777778,12.266666666666667,0)" xlink:href="#ad"/><use transform="matrix(0.017777777777777778,0,0,0.017777777777777778,20.24888888888889,0)" xlink:href="#W"/></g><g id="C"><use transform="matrix(0.017777777777777778,0,0,0.017777777777777778,0,0)" xlink:href="#ad"/><use transform="matrix(0.017777777777777778,0,0,0.017777777777777778,7.982222222222222,0)" xlink:href="#P"/></g><g id="D"><use transform="matrix(0.017777777777777778,0,0,0.017777777777777778,0,0)" xlink:href="#am"/><use transform="matrix(0.017777777777777778,0,0,0.017777777777777778,5.208888888888889,0)" xlink:href="#ad"/><use transform="matrix(0.017777777777777778,0,0,0.017777777777777778,13.19111111111111,0)" xlink:href="#Z"/><use transform="matrix(0.017777777777777778,0,0,0.017777777777777778,19.608888888888888,0)" xlink:href="#ar"/><use transform="matrix(0.017777777777777778,0,0,0.017777777777777778,27.84,0)" xlink:href="#T"/><use transform="matrix(0.017777777777777778,0,0,0.017777777777777778,34.16888888888889,0)" xlink:href="#O"/><use transform="matrix(0.017777777777777778,0,0,0.017777777777777778,38.82666666666667,0)" xlink:href="#P"/><use transform="matrix(0.017777777777777778,0,0,0.017777777777777778,47.18222222222222,0)" xlink:href="#Q"/><use transform="matrix(0.017777777777777778,0,0,0.017777777777777778,54.577777777777776,0)" xlink:href="#ah"/></g><path fill="#3d4752" d="M172-25c10 46-57 17-87 25-26 0-25 1-25-25v-490c0-26-1-25 25-25h258c39-10 25 28 25 55 0 26 1 25-25 25H190c-21 0-20-1-20 20v118c0 21-1 20 20 20h131c38-10 23 26 23 52s0 25-26 25H192c-21 0-20-1-20 20v180" id="as"/><g id="E"><use transform="matrix(0.017777777777777778,0,0,0.017777777777777778,0,0)" xlink:href="#as"/><use transform="matrix(0.017777777777777778,0,0,0.017777777777777778,7.253333333333333,0)" xlink:href="#ad"/><use transform="matrix(0.017777777777777778,0,0,0.017777777777777778,15.235555555555555,0)" xlink:href="#af"/></g><g id="F"><use transform="matrix(0.017777777777777778,0,0,0.017777777777777778,0,0)" xlink:href="#ag"/><use transform="matrix(0.017777777777777778,0,0,0.017777777777777778,8.248888888888889,0)" xlink:href="#O"/><use transform="matrix(0.017777777777777778,0,0,0.017777777777777778,12.906666666666666,0)" xlink:href="#Q"/><use transform="matrix(0.017777777777777778,0,0,0.017777777777777778,20.30222222222222,0)" xlink:href="#ag"/></g><g id="G"><use transform="matrix(0.017777777777777778,0,0,0.017777777777777778,0,0)" xlink:href="#V"/><use transform="matrix(0.017777777777777778,0,0,0.017777777777777778,4.2844444444444445,0)" xlink:href="#M"/><use transform="matrix(0.017777777777777778,0,0,0.017777777777777778,11.608888888888888,0)" xlink:href="#al"/><use transform="matrix(0.017777777777777778,0,0,0.017777777777777778,18.79111111111111,0)" xlink:href="#M"/><use transform="matrix(0.017777777777777778,0,0,0.017777777777777778,26.115555555555556,0)" xlink:href="#V"/></g><g id="H"><use transform="matrix(0.017777777777777778,0,0,0.017777777777777778,0,0)" xlink:href="#ad"/><use transform="matrix(0.017777777777777778,0,0,0.017777777777777778,7.982222222222222,0)" xlink:href="#al"/><use transform="matrix(0.017777777777777778,0,0,0.017777777777777778,15.164444444444445,0)" xlink:href="#M"/><use transform="matrix(0.017777777777777778,0,0,0.017777777777777778,22.488888888888887,0)" xlink:href="#af"/><use transform="matrix(0.017777777777777778,0,0,0.017777777777777778,28,0)" xlink:href="#al"/><use transform="matrix(0.017777777777777778,0,0,0.017777777777777778,35.80444444444444,0)" xlink:href="#O"/><use transform="matrix(0.017777777777777778,0,0,0.017777777777777778,40.46222222222222,0)" xlink:href="#M"/><use transform="matrix(0.017777777777777778,0,0,0.017777777777777778,47.78666666666667,0)" xlink:href="#an"/><use transform="matrix(0.017777777777777778,0,0,0.017777777777777778,59.23555555555556,0)" xlink:href="#T"/><use transform="matrix(0.017777777777777778,0,0,0.017777777777777778,65.56444444444445,0)" xlink:href="#ah"/></g><g id="I"><use transform="matrix(0.017777777777777778,0,0,0.017777777777777778,0,0)" xlink:href="#ae"/><use transform="matrix(0.017777777777777778,0,0,0.017777777777777778,7.2,0)" xlink:href="#O"/><use transform="matrix(0.017777777777777778,0,0,0.017777777777777778,11.857777777777779,0)" xlink:href="#N"/><use transform="matrix(0.017777777777777778,0,0,0.017777777777777778,17.439999999999998,0)" xlink:href="#ak"/></g><g id="J"><use transform="matrix(0.017777777777777778,0,0,0.017777777777777778,0,0)" xlink:href="#aa"/><use transform="matrix(0.017777777777777778,0,0,0.017777777777777778,12.106666666666667,0)" xlink:href="#ar"/><use transform="matrix(0.017777777777777778,0,0,0.017777777777777778,20.33777777777778,0)" xlink:href="#V"/><use transform="matrix(0.017777777777777778,0,0,0.017777777777777778,24.622222222222227,0)" xlink:href="#N"/><use transform="matrix(0.017777777777777778,0,0,0.017777777777777778,30.204444444444448,0)" xlink:href="#O"/><use transform="matrix(0.017777777777777778,0,0,0.017777777777777778,34.86222222222223,0)" xlink:href="#W"/><use transform="matrix(0.017777777777777778,0,0,0.017777777777777778,43.022222222222226,0)" xlink:href="#V"/><use transform="matrix(0.017777777777777778,0,0,0.017777777777777778,47.30666666666667,0)" xlink:href="#M"/></g><g id="K"><use transform="matrix(0.017777777777777778,0,0,0.017777777777777778,0,0)" xlink:href="#N"/><use transform="matrix(0.017777777777777778,0,0,0.017777777777777778,5.582222222222223,0)" xlink:href="#ad"/><use transform="matrix(0.017777777777777778,0,0,0.017777777777777778,13.564444444444444,0)" xlink:href="#ar"/><use transform="matrix(0.017777777777777778,0,0,0.017777777777777778,21.795555555555556,0)" xlink:href="#Z"/><use transform="matrix(0.017777777777777778,0,0,0.017777777777777778,28.213333333333328,0)" xlink:href="#ag"/><use transform="matrix(0.017777777777777778,0,0,0.017777777777777778,36.46222222222222,0)" xlink:href="#W"/><use transform="matrix(0.017777777777777778,0,0,0.017777777777777778,44.62222222222222,0)" xlink:href="#ad"/><use transform="matrix(0.017777777777777778,0,0,0.017777777777777778,52.60444444444444,0)" xlink:href="#O"/><use transform="matrix(0.017777777777777778,0,0,0.017777777777777778,57.26222222222222,0)" xlink:href="#P"/><use transform="matrix(0.017777777777777778,0,0,0.017777777777777778,65.61777777777777,0)" xlink:href="#N"/><use transform="matrix(0.017777777777777778,0,0,0.017777777777777778,71.2,0)" xlink:href="#T"/></g></defs></g></svg>