<svg xmlns="http://www.w3.org/2000/svg" xmlns:xlink="http://www.w3.org/1999/xlink" width="1360" height="900"><g transform="translate(0 0)"><path d="M0 0h1360v900H0z" fill="#fff"/><path d="M84 92h1192v716H84z" stroke="#3d4752" stroke-width="2" fill="#fff"/><path d="M84 92h1192v60H84z" stroke="#3d4752" stroke-width="2" fill="#bfbfbf"/><path d="M276 116h988v24H276z" stroke="#3d4752" stroke-width="2" fill="#fff"/><path d="M108 116l-12 12 12 12m-12-12h24M156 116l12 12-12 12m-12-12h24M216 128c-1.4-6.23-2.8-8.15-4.95-9.7-5.36-3.9-12.86-2.72-16.76 2.65-3.9 5.36-2.72 12.86 2.65 16.76 5.36 3.9 12.86 2.72 16.76-2.65" stroke="#3d4752" stroke-width="6" fill="none"/><path d="M219.12 116v12h-12z" stroke="#3d4752" stroke-width="1.5" fill="#3d4752"/><path d="M240 128l12-12 12 12h-2.4v12h-6v-12h-7.2v12h-6v-12z" stroke="#3d4752" fill="#3d4752"/><use xlink:href="#a" transform="matrix(1,0,0,1,104,92) translate(559.6444444444444 16.444444444444443)"/><use xlink:href="#b" transform="matrix(1,0,0,1,282,116) translate(0 16.444444444444443)"/><path d="M121 201h524v84H121z" stroke="#f78c20" stroke-width="2" fill="#fff"/><path d="M121 201l524 84m0-84l-524 84" stroke="#f78c20" stroke-width="2" fill="none"/><use xlink:href="#c" transform="matrix(1,0,0,1,173.4,243) translate(210 22.333333333333336)"/><path d="M340.68 229h84.64v28h-84.64z" fill="#fff"/><use xlink:href="#d" transform="matrix(1,0,0,1,345.67692307692306,234) translate(18.948888888888888 13.444444444444445)"/><path d="M709 329h239v184H709z" stroke="#f78c20" stroke-width="2" fill="#fff"/><path d="M709 329l239 184m0-184L709 513" stroke="#f78c20" stroke-width="2" fill="none"/><use xlink:href="#c" transform="matrix(1,0,0,1,732.9000000000001,421) translate(96 42.333333333333336)"/><path d="M121 388.3h524V501H121z" fill="none"/><use xlink:href="#e" transform="matrix(1,0,0,1,126.00000000000006,393.29999999999995) translate(0 13.333333333333334)"/><use xlink:href="#f" transform="matrix(1,0,0,1,126.00000000000006,393.29999999999995) translate(41.24444444444445 13.333333333333334)"/><use xlink:href="#g" transform="matrix(1,0,0,1,126.00000000000006,393.29999999999995) translate(128.85333333333335 13.333333333333334)"/><use xlink:href="#h" transform="matrix(1,0,0,1,126.00000000000006,393.29999999999995) translate(182.24 13.333333333333334)"/><use xlink:href="#i" transform="matrix(1,0,0,1,126.00000000000006,393.29999999999995) translate(234.24 13.333333333333334)"/><use xlink:href="#j" transform="matrix(1,0,0,1,126.00000000000006,393.29999999999995) translate(277.47555555555556 13.333333333333334)"/><use xlink:href="#k" transform="matrix(1,0,0,1,126.00000000000006,393.29999999999995) translate(300.99555555555554 13.333333333333334)"/><use xlink:href="#l" transform="matrix(1,0,0,1,126.00000000000006,393.29999999999995) translate(348.3022222222222 13.333333333333334)"/><use xlink:href="#m" transform="matrix(1,0,0,1,126.00000000000006,393.29999999999995) translate(0 36.44444444444445)"/><use xlink:href="#n" transform="matrix(1,0,0,1,126.00000000000006,393.29999999999995) translate(81.10222222222222 36.44444444444445)"/><use xlink:href="#o" transform="matrix(1,0,0,1,126.00000000000006,393.29999999999995) translate(113.65333333333334 36.44444444444445)"/><use xlink:href="#p" transform="matrix(1,0,0,1,126.00000000000006,393.29999999999995) translate(135.66222222222223 36.44444444444445)"/><use xlink:href="#q" transform="matrix(1,0,0,1,126.00000000000006,393.29999999999995) translate(192.51555555555558 36.44444444444445)"/><use xlink:href="#r" transform="matrix(1,0,0,1,126.00000000000006,393.29999999999995) translate(248.00000000000003 36.44444444444445)"/><use xlink:href="#s" transform="matrix(1,0,0,1,126.00000000000006,393.29999999999995) translate(282.48888888888894 36.44444444444445)"/><use xlink:href="#t" transform="matrix(1,0,0,1,126.00000000000006,393.29999999999995) translate(305.6177777777778 36.44444444444445)"/><use xlink:href="#u" transform="matrix(1,0,0,1,126.00000000000006,393.29999999999995) translate(417.12 36.44444444444445)"/><use xlink:href="#v" transform="matrix(1,0,0,1,126.00000000000006,393.29999999999995) translate(0 59.555555555555564)"/><use xlink:href="#w" transform="matrix(1,0,0,1,126.00000000000006,393.29999999999995) translate(78.47111111111113 59.555555555555564)"/><use xlink:href="#x" transform="matrix(1,0,0,1,126.00000000000006,393.29999999999995) translate(113.9377777777778 59.555555555555564)"/><use xlink:href="#y" transform="matrix(1,0,0,1,126.00000000000006,393.29999999999995) translate(184.69333333333333 59.555555555555564)"/><use xlink:href="#z" transform="matrix(1,0,0,1,126.00000000000006,393.29999999999995) translate(198.1511111111111 59.555555555555564)"/><use xlink:href="#A" transform="matrix(1,0,0,1,126.00000000000006,393.29999999999995) translate(221.88444444444445 59.555555555555564)"/><use xlink:href="#B" transform="matrix(1,0,0,1,126.00000000000006,393.29999999999995) translate(263.00444444444446 59.555555555555564)"/><use xlink:href="#C" transform="matrix(1,0,0,1,126.00000000000006,393.29999999999995) translate(336.8355555555556 59.555555555555564)"/><use xlink:href="#D" transform="matrix(1,0,0,1,126.00000000000006,393.29999999999995) translate(362.8977777777778 59.555555555555564)"/><use xlink:href="#E" transform="matrix(1,0,0,1,126.00000000000006,393.29999999999995) translate(411.41333333333336 59.555555555555564)"/><use xlink:href="#F" transform="matrix(1,0,0,1,126.00000000000006,393.29999999999995) translate(0 82.66666666666667)"/><use xlink:href="#G" transform="matrix(1,0,0,1,126.00000000000006,393.29999999999995) translate(70.59555555555556 82.66666666666667)"/><use xlink:href="#H" transform="matrix(1,0,0,1,126.00000000000006,393.29999999999995) translate(97.47555555555556 82.66666666666667)"/><use xlink:href="#I" transform="matrix(1,0,0,1,126.00000000000006,393.29999999999995) translate(134.2577777777778 82.66666666666667)"/><use xlink:href="#J" transform="matrix(1,0,0,1,126.00000000000006,393.29999999999995) translate(194.61333333333334 82.66666666666667)"/><path d="M121 334h348v54H121z" fill="none"/><g><use xlink:href="#K" transform="matrix(1,0,0,1,126,339) translate(0 20)"/><use xlink:href="#L" transform="matrix(1,0,0,1,126,339) translate(107.36 20)"/></g><path d="M707 581h344v58H707z" fill="none"/><g><use xlink:href="#M" transform="matrix(1,0,0,1,712,586) translate(0 20)"/><use xlink:href="#N" transform="matrix(1,0,0,1,712,586) translate(68.93333333333334 20)"/><use xlink:href="#O" transform="matrix(1,0,0,1,712,586) translate(94.53333333333333 20)"/><use xlink:href="#P" transform="matrix(1,0,0,1,712,586) translate(139.28 20)"/></g><path d="M707 638.6h484V741H707z" fill="none"/><g><use xlink:href="#Q" transform="matrix(1,0,0,1,712,643.5999999999999) translate(0 13.333333333333334)"/><use xlink:href="#f" transform="matrix(1,0,0,1,712,643.5999999999999) translate(40.14222222222222 13.333333333333334)"/><use xlink:href="#R" transform="matrix(1,0,0,1,712,643.5999999999999) translate(127.75111111111113 13.333333333333334)"/><use xlink:href="#C" transform="matrix(1,0,0,1,712,643.5999999999999) translate(194.8266666666667 13.333333333333334)"/><use xlink:href="#S" transform="matrix(1,0,0,1,712,643.5999999999999) translate(220.88888888888894 13.333333333333334)"/><use xlink:href="#T" transform="matrix(1,0,0,1,712,643.5999999999999) translate(252.24888888888893 13.333333333333334)"/><use xlink:href="#q" transform="matrix(1,0,0,1,712,643.5999999999999) translate(327.5555555555556 13.333333333333334)"/><use xlink:href="#U" transform="matrix(1,0,0,1,712,643.5999999999999) translate(383.0400000000001 13.333333333333334)"/><use xlink:href="#V" transform="matrix(1,0,0,1,712,643.5999999999999) translate(0 36.44444444444445)"/><use xlink:href="#W" transform="matrix(1,0,0,1,712,643.5999999999999) translate(62.186666666666675 36.44444444444445)"/><use xlink:href="#X" transform="matrix(1,0,0,1,712,643.5999999999999) translate(124.60444444444445 36.44444444444445)"/><use xlink:href="#Y" transform="matrix(1,0,0,1,712,643.5999999999999) translate(152.94222222222223 36.44444444444445)"/><use xlink:href="#Z" transform="matrix(1,0,0,1,712,643.5999999999999) translate(202.98666666666668 36.44444444444445)"/><use xlink:href="#aa" transform="matrix(1,0,0,1,712,643.5999999999999) translate(285.3511111111111 36.44444444444445)"/><use xlink:href="#ab" transform="matrix(1,0,0,1,712,643.5999999999999) translate(327.03999999999996 36.44444444444445)"/><use xlink:href="#ac" transform="matrix(1,0,0,1,712,643.5999999999999) translate(397.4577777777778 36.44444444444445)"/><use xlink:href="#ad" transform="matrix(1,0,0,1,712,643.5999999999999) translate(0 59.555555555555564)"/><use xlink:href="#ae" transform="matrix(1,0,0,1,712,643.5999999999999) translate(53.29777777777778 59.555555555555564)"/><use xlink:href="#A" transform="matrix(1,0,0,1,712,643.5999999999999) translate(84.35555555555555 59.555555555555564)"/><use xlink:href="#af" transform="matrix(1,0,0,1,712,643.5999999999999) translate(125.47555555555556 59.555555555555564)"/><use xlink:href="#ag" transform="matrix(1,0,0,1,712,643.5999999999999) translate(163.89333333333335 59.555555555555564)"/><use xlink:href="#ah" transform="matrix(1,0,0,1,712,643.5999999999999) translate(200.44444444444446 59.555555555555564)"/><use xlink:href="#ai" transform="matrix(1,0,0,1,712,643.5999999999999) translate(249.01333333333335 59.555555555555564)"/><use xlink:href="#aj" transform="matrix(1,0,0,1,712,643.5999999999999) translate(297.58222222222224 59.555555555555564)"/><use xlink:href="#ak" transform="matrix(1,0,0,1,712,643.5999999999999) translate(365.12 59.555555555555564)"/><use xlink:href="#al" transform="matrix(1,0,0,1,712,643.5999999999999) translate(433.92 59.555555555555564)"/><use xlink:href="#am" transform="matrix(1,0,0,1,712,643.5999999999999) translate(0 82.66666666666667)"/><use xlink:href="#an" transform="matrix(1,0,0,1,712,643.5999999999999) translate(18.47111111111111 82.66666666666667)"/><use xlink:href="#ao" transform="matrix(1,0,0,1,712,643.5999999999999) translate(55.715555555555554 82.66666666666667)"/><use xlink:href="#ap" transform="matrix(1,0,0,1,712,643.5999999999999) translate(115.30666666666667 82.66666666666667)"/></g><path d="M241 626H121v40h120M241 674H121v40h120" stroke="#f78c20" stroke-width="2" fill="#bfbfbf"/><path d="M241 558v20H121v40h120v123h404V558z" stroke="#f78c20" stroke-width="2" fill="#fff"/><g><use xlink:href="#aq" transform="matrix(1,0,0,1,126,583) translate(0 19.444444444444443)"/><use xlink:href="#ar" transform="matrix(1,0,0,1,126,583) translate(86.47111111111111 19.444444444444443)"/></g><g><use xlink:href="#aq" transform="matrix(1,0,0,1,126,631) translate(0 19.444444444444443)"/><use xlink:href="#as" transform="matrix(1,0,0,1,126,631) translate(86.47111111111111 19.444444444444443)"/></g><g><use xlink:href="#aq" transform="matrix(1,0,0,1,126,679) translate(0 19.444444444444443)"/><use xlink:href="#at" transform="matrix(1,0,0,1,126,679) translate(86.47111111111111 19.444444444444443)"/></g><path d="M269 578h360v143H269z" fill="none"/><g><use xlink:href="#au" transform="matrix(1,0,0,1,287,596) translate(0 23.27777777777778)"/><use xlink:href="#av" transform="matrix(1,0,0,1,287,596) translate(75.78666666666666 23.27777777777778)"/><use xlink:href="#aw" transform="matrix(1,0,0,1,287,596) translate(109.54666666666665 23.27777777777778)"/><use xlink:href="#ax" transform="matrix(1,0,0,1,287,596) translate(156.42666666666665 23.27777777777778)"/><use xlink:href="#ay" transform="matrix(1,0,0,1,287,596) translate(216.99555555555554 23.27777777777778)"/><use xlink:href="#az" transform="matrix(1,0,0,1,287,596) translate(279.53777777777776 23.27777777777778)"/><use xlink:href="#aA" transform="matrix(1,0,0,1,287,596) translate(0 46.38888888888889)"/><use xlink:href="#aB" transform="matrix(1,0,0,1,287,596) translate(34.08 46.38888888888889)"/><use xlink:href="#aC" transform="matrix(1,0,0,1,287,596) translate(94.77333333333334 46.38888888888889)"/><use xlink:href="#aD" transform="matrix(1,0,0,1,287,596) translate(141.8488888888889 46.38888888888889)"/><use xlink:href="#C" transform="matrix(1,0,0,1,287,596) translate(193.70666666666668 46.38888888888889)"/><use xlink:href="#aE" transform="matrix(1,0,0,1,287,596) translate(219.7688888888889 46.38888888888889)"/><use xlink:href="#aF" transform="matrix(1,0,0,1,287,596) translate(241.13777777777779 46.38888888888889)"/><use xlink:href="#aG" transform="matrix(1,0,0,1,287,596) translate(262.3644444444445 46.38888888888889)"/><use xlink:href="#aH" transform="matrix(1,0,0,1,287,596) translate(0 69.5)"/><use xlink:href="#aI" transform="matrix(1,0,0,1,287,596) translate(67.28888888888889 69.5)"/><use xlink:href="#s" transform="matrix(1,0,0,1,287,596) translate(157.97333333333336 69.5)"/><use xlink:href="#aJ" transform="matrix(1,0,0,1,287,596) translate(181.10222222222225 69.5)"/><use xlink:href="#aK" transform="matrix(1,0,0,1,287,596) translate(212.64000000000004 69.5)"/><use xlink:href="#aL" transform="matrix(1,0,0,1,287,596) translate(260.2844444444445 69.5)"/><use xlink:href="#aM" transform="matrix(1,0,0,1,287,596) translate(0 92.61111111111111)"/><use xlink:href="#q" transform="matrix(1,0,0,1,287,596) translate(54.61333333333334 92.61111111111111)"/><use xlink:href="#q" transform="matrix(1,0,0,1,287,596) translate(110.0977777777778 92.61111111111111)"/><use xlink:href="#aN" transform="matrix(1,0,0,1,287,596) translate(165.58222222222224 92.61111111111111)"/></g><path d="M707 253.4h530V285H707z" stroke="#f78c20" stroke-width="2" fill="#fff"/><path d="M719.64 266.04l12.64 12.64" stroke="#f78c20" stroke-width="4" fill="none"/><path d="M725.96 266.04c0 3.5-2.83 6.32-6.32 6.32-3.5 0-6.32-2.83-6.32-6.32 0-3.5 2.83-6.32 6.32-6.32 3.5 0 6.32 2.83 6.32 6.32z" stroke="#f78c20" stroke-width="2" fill="#fff"/><g><use xlink:href="#aO" transform="matrix(1,0,0,1,788.44,256.56) translate(0 17.444444444444443)"/></g><path d="M1000 329h237v184h-237z" stroke="#f78c20" stroke-width="2" fill="#fff"/><path d="M1000 329l237 184m0-184l-237 184" stroke="#f78c20" stroke-width="2" fill="none"/><g><use xlink:href="#c" transform="matrix(1,0,0,1,1023.7,421) translate(95 42.333333333333336)"/></g><defs><path fill="#3d4752" d="M-4-622v-74h500v74H285V0h-76v-622H-4" id="aP"/><path fill="#3d4752" d="M81 0v-500h74V0H81zm0-613v-87h74v87H81" id="aQ"/><path fill="#3d4752" d="M331-432H173v233c0 109 6 139 72 139 28 0 89-5 89-5l4 65s-66 11-101 11C134 11 98-28 98-172v-260H27v-68h71v-153h75v153h158v68" id="aR"/><path fill="#3d4752" d="M84 0v-718h74V0H84" id="aS"/><path fill="#3d4752" d="M258-58c75 0 183-9 183-9l2 61S330 10 249 10C99 10 50-77 50-247c0-190 83-263 210-263 151 0 219 111 197 292H126c1 105 33 160 132 160zM126-279h260c0-120-39-164-126-164-86 0-134 47-134 164" id="aT"/><g id="a"><use transform="matrix(0.017777777777777778,0,0,0.017777777777777778,0,0)" xlink:href="#aP"/><use transform="matrix(0.017777777777777778,0,0,0.017777777777777778,8.746666666666666,0)" xlink:href="#aQ"/><use transform="matrix(0.017777777777777778,0,0,0.017777777777777778,12.942222222222222,0)" xlink:href="#aR"/><use transform="matrix(0.017777777777777778,0,0,0.017777777777777778,19.39555555555555,0)" xlink:href="#aS"/><use transform="matrix(0.017777777777777778,0,0,0.017777777777777778,23.697777777777777,0)" xlink:href="#aT"/></g><path fill="#3d4752" d="M162 0H87v-730h75v254s84-34 154-34c138 0 169 68 169 249V0h-75v-260c0-132-15-181-105-181-67 0-143 29-143 29V0" id="aU"/><path fill="#3d4752" d="M87 222v-722h75v35s75-45 149-45c126 0 181 75 181 254 0 196-63 266-218 266-47 0-98-8-112-11v223H87zm214-663c-66 0-139 39-139 39v334c13 3 65 11 108 11 110 0 146-55 146-201 0-135-43-183-115-183" id="aV"/><path fill="#3d4752" d="M60-322v-114h82v114H60zM60 0v-114h82V0H60" id="aW"/><path fill="#3d4752" d="M88-15l279-694 71 26L159 10" id="aX"/><path fill="#3d4752" d="M162 0H87v-500h75v34c-4-5 120-52 180-41 41 7 72 18 92 42 29-11 112-45 181-45 136 0 169 65 169 250V0h-75v-237c0-153-10-204-105-204-68 0-138 36-140 37 21 98 9 281 12 404h-75v-258c0-138-14-183-105-183-67 0-134 37-134 37V0" id="aY"/><path fill="#3d4752" d="M24-500h75L224-72h34l125-428h75L250 222h-75L239 0h-73" id="aZ"/><path fill="#3d4752" d="M456-700V0h-75v-33s-77 43-152 43C132 10 50-32 50-248c0-175 56-262 209-262 43 0 107 10 122 13v-203h75zM239-59c67 0 142-37 142-37v-335c-15-2-78-11-118-11-105 0-138 65-138 196 0 160 55 187 114 187" id="ba"/><path fill="#3d4752" d="M265-510c151 0 213 84 213 255 0 173-44 265-213 265S50-74 50-257c0-172 57-253 215-253zm0 453c118 0 136-66 136-198 0-133-40-187-136-187-106 0-138 48-138 185 0 140 20 200 138 200" id="bb"/><path fill="#3d4752" d="M433-347v246c2 32 26 42 58 46l-3 65c-60 0-92-11-118-38 0 0-90 38-185 38C98 10 49-45 49-143c0-96 49-139 152-148l158-15c7-80-16-132-87-132-73 0-191 13-191 13l-3-65s120-20 197-20c106 0 158 50 158 163zm-74 102l-148 12c-61 6-86 37-86 88 0 58 26 90 71 90 76 0 163-30 163-30v-160" id="bc"/><path fill="#3d4752" d="M162 0H87v-500h75v33s84-43 155-43c137 0 168 68 168 250V0h-74v-259c0-133-15-182-106-182-66 0-143 37-143 37V0" id="bd"/><path fill="#3d4752" d="M77 0v-114h81V0H77" id="be"/><path fill="#3d4752" d="M257-510c46 0 136 15 136 15l-2 65s-80-9-118-9c-115 0-146 48-146 180 0 146 23 199 146 199 38 0 119-9 119-9l3 65s-94 14-139 14C96 10 50-63 50-259c0-181 58-251 207-251" id="bf"/><g id="b"><use transform="matrix(0.017777777777777778,0,0,0.017777777777777778,0,0)" xlink:href="#aU"/><use transform="matrix(0.017777777777777778,0,0,0.017777777777777778,10.044444444444444,0)" xlink:href="#aR"/><use transform="matrix(0.017777777777777778,0,0,0.017777777777777778,16.497777777777777,0)" xlink:href="#aR"/><use transform="matrix(0.017777777777777778,0,0,0.017777777777777778,22.95111111111111,0)" xlink:href="#aV"/><use transform="matrix(0.017777777777777778,0,0,0.017777777777777778,32.586666666666666,0)" xlink:href="#aW"/><use transform="matrix(0.017777777777777778,0,0,0.017777777777777778,35.733333333333334,0)" xlink:href="#aX"/><use transform="matrix(0.017777777777777778,0,0,0.017777777777777778,45.15555555555556,0)" xlink:href="#aX"/><use transform="matrix(0.017777777777777778,0,0,0.017777777777777778,54.57777777777778,0)" xlink:href="#aY"/><use transform="matrix(0.017777777777777778,0,0,0.017777777777777778,69.93777777777778,0)" xlink:href="#aZ"/><use transform="matrix(0.017777777777777778,0,0,0.017777777777777778,78.50666666666669,0)" xlink:href="#ba"/><use transform="matrix(0.017777777777777778,0,0,0.017777777777777778,88.16000000000001,0)" xlink:href="#bb"/><use transform="matrix(0.017777777777777778,0,0,0.017777777777777778,97.54666666666668,0)" xlink:href="#aY"/><use transform="matrix(0.017777777777777778,0,0,0.017777777777777778,112.90666666666668,0)" xlink:href="#bc"/><use transform="matrix(0.017777777777777778,0,0,0.017777777777777778,122.18666666666668,0)" xlink:href="#aQ"/><use transform="matrix(0.017777777777777778,0,0,0.017777777777777778,126.38222222222224,0)" xlink:href="#bd"/><use transform="matrix(0.017777777777777778,0,0,0.017777777777777778,136.48000000000002,0)" xlink:href="#be"/><use transform="matrix(0.017777777777777778,0,0,0.017777777777777778,140.8888888888889,0)" xlink:href="#bf"/><use transform="matrix(0.017777777777777778,0,0,0.017777777777777778,148.65777777777782,0)" xlink:href="#bb"/><use transform="matrix(0.017777777777777778,0,0,0.017777777777777778,158.04444444444445,0)" xlink:href="#aY"/></g><path d="M471 0H90v-696h77v622h304V0" id="bg"/><path d="M265-510c151 0 213 84 213 255 0 173-44 265-213 265S50-74 50-257c0-172 57-253 215-253zm0 453c118 0 136-66 136-198 0-133-40-187-136-187-106 0-138 48-138 185 0 140 20 200 138 200" id="bh"/><path d="M262 239C104 239 47 204 47 84c0-58 27-85 79-124-18-12-27-38-27-69 0-19 33-79 33-79-41-19-78-58-78-151 0-123 75-171 186-171 50 0 104 13 104 13l146-3v64h-90c18 19 31 44 31 97 0 149-98 180-243 165 0 0-18 44-18 57 0 40 9 46 121 46 143 0 194 28 194 147 0 116-82 163-223 163zM286-5c-36 0-109-5-109-5-41 31-56 49-56 88 0 69 29 94 142 94 101 0 146-27 146-93 0-76-33-84-123-84zm-49-229c84 0 119-26 119-105 0-86-32-106-117-106-74 0-110 27-110 106 0 72 25 105 108 105" id="bi"/><g id="d"><use transform="matrix(0.017777777777777778,0,0,0.017777777777777778,0,0)" xlink:href="#bg"/><use transform="matrix(0.017777777777777778,0,0,0.017777777777777778,9.12,0)" xlink:href="#bh"/><use transform="matrix(0.017777777777777778,0,0,0.017777777777777778,18.506666666666668,0)" xlink:href="#bi"/><use transform="matrix(0.017777777777777778,0,0,0.017777777777777778,27.715555555555557,0)" xlink:href="#bh"/></g><path d="M258-58c75 0 183-9 183-9l2 61S330 10 249 10C99 10 50-77 50-247c0-190 83-263 210-263 151 0 219 111 197 292H126c1 105 33 160 132 160zM126-279h260c0-120-39-164-126-164-86 0-134 47-134 164" id="bj"/><path d="M433-347v246c2 32 26 42 58 46l-3 65c-60 0-92-11-118-38 0 0-90 38-185 38C98 10 49-45 49-143c0-96 49-139 152-148l158-15c7-80-16-132-87-132-73 0-191 13-191 13l-3-65s120-20 197-20c106 0 158 50 158 163zm-74 102l-148 12c-61 6-86 37-86 88 0 58 26 90 71 90 76 0 163-30 163-30v-160" id="bk"/><path d="M456-700V0h-75v-33s-77 43-152 43C132 10 50-32 50-248c0-175 56-262 209-262 43 0 107 10 122 13v-203h75zM239-59c67 0 142-37 142-37v-335c-15-2-78-11-118-11-105 0-138 65-138 196 0 160 55 187 114 187" id="bl"/><g id="e"><use transform="matrix(0.017777777777777778,0,0,0.017777777777777778,0,0)" xlink:href="#bg"/><use transform="matrix(0.017777777777777778,0,0,0.017777777777777778,9.12,0)" xlink:href="#bj"/><use transform="matrix(0.017777777777777778,0,0,0.017777777777777778,18.133333333333333,0)" xlink:href="#bk"/><use transform="matrix(0.017777777777777778,0,0,0.017777777777777778,27.413333333333334,0)" xlink:href="#bl"/></g><path d="M87 222v-722h75v35s75-45 149-45c126 0 181 75 181 254 0 196-63 266-218 266-47 0-98-8-112-11v223H87zm214-663c-66 0-139 39-139 39v334c13 3 65 11 108 11 110 0 146-55 146-201 0-135-43-183-115-183" id="bm"/><path d="M87 0v-500h75v66s77-58 174-76v78c-94 18-174 69-174 69V0H87" id="bn"/><path d="M162 0H87v-730h75v254s84-34 154-34c138 0 169 68 169 249V0h-75v-260c0-132-15-181-105-181-67 0-143 29-143 29V0" id="bo"/><path d="M77 0v-114h81V0H77" id="bp"/><g id="f"><use transform="matrix(0.017777777777777778,0,0,0.017777777777777778,0,0)" xlink:href="#bm"/><use transform="matrix(0.017777777777777778,0,0,0.017777777777777778,9.635555555555555,0)" xlink:href="#bk"/><use transform="matrix(0.017777777777777778,0,0,0.017777777777777778,18.915555555555557,0)" xlink:href="#bn"/><use transform="matrix(0.017777777777777778,0,0,0.017777777777777778,25.244444444444447,0)" xlink:href="#bk"/><use transform="matrix(0.017777777777777778,0,0,0.017777777777777778,34.52444444444445,0)" xlink:href="#bi"/><use transform="matrix(0.017777777777777778,0,0,0.017777777777777778,43.733333333333334,0)" xlink:href="#bn"/><use transform="matrix(0.017777777777777778,0,0,0.017777777777777778,50.062222222222225,0)" xlink:href="#bk"/><use transform="matrix(0.017777777777777778,0,0,0.017777777777777778,59.34222222222222,0)" xlink:href="#bm"/><use transform="matrix(0.017777777777777778,0,0,0.017777777777777778,68.97777777777779,0)" xlink:href="#bo"/><use transform="matrix(0.017777777777777778,0,0,0.017777777777777778,79.02222222222224,0)" xlink:href="#bp"/></g><path d="M162 0H87v-500h75v34c-4-5 120-52 180-41 41 7 72 18 92 42 29-11 112-45 181-45 136 0 169 65 169 250V0h-75v-237c0-153-10-204-105-204-68 0-138 36-140 37 21 98 9 281 12 404h-75v-258c0-138-14-183-105-183-67 0-134 37-134 37V0" id="bq"/><g id="g"><use transform="matrix(0.017777777777777778,0,0,0.017777777777777778,0,0)" xlink:href="#bg"/><use transform="matrix(0.017777777777777778,0,0,0.017777777777777778,9.12,0)" xlink:href="#bh"/><use transform="matrix(0.017777777777777778,0,0,0.017777777777777778,18.506666666666668,0)" xlink:href="#bn"/><use transform="matrix(0.017777777777777778,0,0,0.017777777777777778,24.83555555555556,0)" xlink:href="#bj"/><use transform="matrix(0.017777777777777778,0,0,0.017777777777777778,33.848888888888894,0)" xlink:href="#bq"/></g><path d="M81 0v-500h74V0H81zm0-613v-87h74v87H81" id="br"/><path d="M416-491l-2 65s-111-16-175-16c-62 0-108 16-108 75 0 47 23 61 122 76 132 21 180 48 180 145 0 117-74 156-195 156C174 10 62-9 62-9l4-65s114 17 165 17c82 0 126-18 126-86 0-52-26-64-126-80-122-19-176-43-176-141 0-110 89-146 180-146 75 0 181 19 181 19" id="bs"/><path d="M397-500h74V0h-74v-32s-78 42-148 42C109 10 80-54 80-239v-261h74v260c0 138 12 183 106 183 66 0 137-37 137-37v-406" id="bt"/><g id="h"><use transform="matrix(0.017777777777777778,0,0,0.017777777777777778,0,0)" xlink:href="#br"/><use transform="matrix(0.017777777777777778,0,0,0.017777777777777778,4.195555555555556,0)" xlink:href="#bm"/><use transform="matrix(0.017777777777777778,0,0,0.017777777777777778,13.831111111111111,0)" xlink:href="#bs"/><use transform="matrix(0.017777777777777778,0,0,0.017777777777777778,22.524444444444445,0)" xlink:href="#bt"/><use transform="matrix(0.017777777777777778,0,0,0.017777777777777778,32.46222222222222,0)" xlink:href="#bq"/></g><path d="M84 0v-718h74V0H84" id="bu"/><g id="i"><use transform="matrix(0.017777777777777778,0,0,0.017777777777777778,0,0)" xlink:href="#bl"/><use transform="matrix(0.017777777777777778,0,0,0.017777777777777778,9.653333333333334,0)" xlink:href="#bh"/><use transform="matrix(0.017777777777777778,0,0,0.017777777777777778,19.04,0)" xlink:href="#bu"/><use transform="matrix(0.017777777777777778,0,0,0.017777777777777778,23.342222222222222,0)" xlink:href="#bh"/><use transform="matrix(0.017777777777777778,0,0,0.017777777777777778,32.72888888888889,0)" xlink:href="#bn"/></g><path d="M331-432H173v233c0 109 6 139 72 139 28 0 89-5 89-5l4 65s-66 11-101 11C134 11 98-28 98-172v-260H27v-68h71v-153h75v153h158v68" id="bv"/><g id="j"><use transform="matrix(0.017777777777777778,0,0,0.017777777777777778,0,0)" xlink:href="#bs"/><use transform="matrix(0.017777777777777778,0,0,0.017777777777777778,8.693333333333333,0)" xlink:href="#br"/><use transform="matrix(0.017777777777777778,0,0,0.017777777777777778,12.88888888888889,0)" xlink:href="#bv"/></g><path d="M26 123l46-230h81L98 123H26" id="bw"/><g id="k"><use transform="matrix(0.017777777777777778,0,0,0.017777777777777778,0,0)" xlink:href="#bk"/><use transform="matrix(0.017777777777777778,0,0,0.017777777777777778,9.28,0)" xlink:href="#bq"/><use transform="matrix(0.017777777777777778,0,0,0.017777777777777778,24.64,0)" xlink:href="#bj"/><use transform="matrix(0.017777777777777778,0,0,0.017777777777777778,33.653333333333336,0)" xlink:href="#bv"/><use transform="matrix(0.017777777777777778,0,0,0.017777777777777778,40.10666666666667,0)" xlink:href="#bw"/></g><path d="M257-510c46 0 136 15 136 15l-2 65s-80-9-118-9c-115 0-146 48-146 180 0 146 23 199 146 199 38 0 119-9 119-9l3 65s-94 14-139 14C96 10 50-63 50-259c0-181 58-251 207-251" id="bx"/><path d="M162 0H87v-500h75v33s84-43 155-43c137 0 168 68 168 250V0h-74v-259c0-133-15-182-106-182-66 0-143 37-143 37V0" id="by"/><g id="l"><use transform="matrix(0.017777777777777778,0,0,0.017777777777777778,0,0)" xlink:href="#bx"/><use transform="matrix(0.017777777777777778,0,0,0.017777777777777778,7.768888888888889,0)" xlink:href="#bh"/><use transform="matrix(0.017777777777777778,0,0,0.017777777777777778,17.155555555555555,0)" xlink:href="#by"/><use transform="matrix(0.017777777777777778,0,0,0.017777777777777778,27.25333333333333,0)" xlink:href="#bs"/><use transform="matrix(0.017777777777777778,0,0,0.017777777777777778,35.946666666666665,0)" xlink:href="#bj"/><use transform="matrix(0.017777777777777778,0,0,0.017777777777777778,44.96,0)" xlink:href="#bx"/><use transform="matrix(0.017777777777777778,0,0,0.017777777777777778,52.72888888888889,0)" xlink:href="#bv"/><use transform="matrix(0.017777777777777778,0,0,0.017777777777777778,59.18222222222222,0)" xlink:href="#bj"/><use transform="matrix(0.017777777777777778,0,0,0.017777777777777778,68.19555555555556,0)" xlink:href="#bv"/><use transform="matrix(0.017777777777777778,0,0,0.017777777777777778,74.64888888888889,0)" xlink:href="#bt"/><use transform="matrix(0.017777777777777778,0,0,0.017777777777777778,84.58666666666667,0)" xlink:href="#bn"/></g><g id="m"><use transform="matrix(0.017777777777777778,0,0,0.017777777777777778,0,0)" xlink:href="#bk"/><use transform="matrix(0.017777777777777778,0,0,0.017777777777777778,9.28,0)" xlink:href="#bl"/><use transform="matrix(0.017777777777777778,0,0,0.017777777777777778,18.933333333333334,0)" xlink:href="#br"/><use transform="matrix(0.017777777777777778,0,0,0.017777777777777778,23.128888888888888,0)" xlink:href="#bm"/><use transform="matrix(0.017777777777777778,0,0,0.017777777777777778,32.76444444444444,0)" xlink:href="#br"/><use transform="matrix(0.017777777777777778,0,0,0.017777777777777778,36.96,0)" xlink:href="#bs"/><use transform="matrix(0.017777777777777778,0,0,0.017777777777777778,45.653333333333336,0)" xlink:href="#bx"/><use transform="matrix(0.017777777777777778,0,0,0.017777777777777778,53.422222222222224,0)" xlink:href="#br"/><use transform="matrix(0.017777777777777778,0,0,0.017777777777777778,57.61777777777779,0)" xlink:href="#by"/><use transform="matrix(0.017777777777777778,0,0,0.017777777777777778,67.71555555555555,0)" xlink:href="#bi"/></g><g id="n"><use transform="matrix(0.017777777777777778,0,0,0.017777777777777778,0,0)" xlink:href="#bj"/><use transform="matrix(0.017777777777777778,0,0,0.017777777777777778,9.013333333333334,0)" xlink:href="#bu"/><use transform="matrix(0.017777777777777778,0,0,0.017777777777777778,13.315555555555555,0)" xlink:href="#br"/><use transform="matrix(0.017777777777777778,0,0,0.017777777777777778,17.511111111111113,0)" xlink:href="#bv"/><use transform="matrix(0.017777777777777778,0,0,0.017777777777777778,23.964444444444446,0)" xlink:href="#bp"/></g><path d="M155-210c0 108 64 145 162 145 104 0 169-36 169-145v-486h76v486C562-52 475 9 317 9 165 9 78-51 78-210v-486h77v486" id="bz"/><g id="o"><use transform="matrix(0.017777777777777778,0,0,0.017777777777777778,0,0)" xlink:href="#bz"/><use transform="matrix(0.017777777777777778,0,0,0.017777777777777778,11.377777777777778,0)" xlink:href="#bv"/></g><path d="M165-432V0H91v-432H28v-68h63v-45c0-144 36-182 134-182 35 0 101 7 101 7l-1 62s-56-2-85-2c-56 0-75 24-75 116v44h146v68H165" id="bA"/><path d="M308-510c136 0 183 72 183 251 0 198-54 269-236 269C195 10 87-1 87-1v-717h75v241s75-33 146-33zM254-57c137 0 161-62 161-200 0-130-26-184-114-184-66 0-139 27-139 27v351s65 6 92 6" id="bB"/><g id="p"><use transform="matrix(0.017777777777777778,0,0,0.017777777777777778,0,0)" xlink:href="#bA"/><use transform="matrix(0.017777777777777778,0,0,0.017777777777777778,5.937777777777778,0)" xlink:href="#br"/><use transform="matrix(0.017777777777777778,0,0,0.017777777777777778,10.133333333333333,0)" xlink:href="#by"/><use transform="matrix(0.017777777777777778,0,0,0.017777777777777778,20.23111111111111,0)" xlink:href="#br"/><use transform="matrix(0.017777777777777778,0,0,0.017777777777777778,24.42666666666667,0)" xlink:href="#bB"/><use transform="matrix(0.017777777777777778,0,0,0.017777777777777778,34.04444444444445,0)" xlink:href="#bt"/><use transform="matrix(0.017777777777777778,0,0,0.017777777777777778,43.982222222222234,0)" xlink:href="#bs"/></g><g id="q"><use transform="matrix(0.017777777777777778,0,0,0.017777777777777778,0,0)" xlink:href="#bq"/><use transform="matrix(0.017777777777777778,0,0,0.017777777777777778,15.36,0)" xlink:href="#bk"/><use transform="matrix(0.017777777777777778,0,0,0.017777777777777778,24.64,0)" xlink:href="#bs"/><use transform="matrix(0.017777777777777778,0,0,0.017777777777777778,33.333333333333336,0)" xlink:href="#bs"/><use transform="matrix(0.017777777777777778,0,0,0.017777777777777778,42.02666666666668,0)" xlink:href="#bk"/></g><g id="r"><use transform="matrix(0.017777777777777778,0,0,0.017777777777777778,0,0)" xlink:href="#by"/><use transform="matrix(0.017777777777777778,0,0,0.017777777777777778,10.097777777777777,0)" xlink:href="#br"/><use transform="matrix(0.017777777777777778,0,0,0.017777777777777778,14.293333333333333,0)" xlink:href="#bs"/><use transform="matrix(0.017777777777777778,0,0,0.017777777777777778,22.98666666666666,0)" xlink:href="#bu"/><use transform="matrix(0.017777777777777778,0,0,0.017777777777777778,27.288888888888888,0)" xlink:href="#bw"/></g><g id="s"><use transform="matrix(0.017777777777777778,0,0,0.017777777777777778,0,0)" xlink:href="#bj"/><use transform="matrix(0.017777777777777778,0,0,0.017777777777777778,9.013333333333334,0)" xlink:href="#bt"/></g><g id="t"><use transform="matrix(0.017777777777777778,0,0,0.017777777777777778,0,0)" xlink:href="#bx"/><use transform="matrix(0.017777777777777778,0,0,0.017777777777777778,7.768888888888889,0)" xlink:href="#bh"/><use transform="matrix(0.017777777777777778,0,0,0.017777777777777778,17.155555555555555,0)" xlink:href="#by"/><use transform="matrix(0.017777777777777778,0,0,0.017777777777777778,27.25333333333333,0)" xlink:href="#bl"/><use transform="matrix(0.017777777777777778,0,0,0.017777777777777778,36.906666666666666,0)" xlink:href="#br"/><use transform="matrix(0.017777777777777778,0,0,0.017777777777777778,41.102222222222224,0)" xlink:href="#bq"/><use transform="matrix(0.017777777777777778,0,0,0.017777777777777778,56.46222222222222,0)" xlink:href="#bj"/><use transform="matrix(0.017777777777777778,0,0,0.017777777777777778,65.47555555555556,0)" xlink:href="#by"/><use transform="matrix(0.017777777777777778,0,0,0.017777777777777778,75.57333333333334,0)" xlink:href="#bv"/><use transform="matrix(0.017777777777777778,0,0,0.017777777777777778,82.02666666666667,0)" xlink:href="#bt"/><use transform="matrix(0.017777777777777778,0,0,0.017777777777777778,91.96444444444447,0)" xlink:href="#bq"/></g><g id="u"><use transform="matrix(0.017777777777777778,0,0,0.017777777777777778,0,0)" xlink:href="#bl"/><use transform="matrix(0.017777777777777778,0,0,0.017777777777777778,9.653333333333334,0)" xlink:href="#bt"/><use transform="matrix(0.017777777777777778,0,0,0.017777777777777778,19.59111111111111,0)" xlink:href="#br"/></g><g id="v"><use transform="matrix(0.017777777777777778,0,0,0.017777777777777778,0,0)" xlink:href="#bl"/><use transform="matrix(0.017777777777777778,0,0,0.017777777777777778,9.653333333333334,0)" xlink:href="#br"/><use transform="matrix(0.017777777777777778,0,0,0.017777777777777778,13.84888888888889,0)" xlink:href="#bi"/><use transform="matrix(0.017777777777777778,0,0,0.017777777777777778,23.057777777777776,0)" xlink:href="#by"/><use transform="matrix(0.017777777777777778,0,0,0.017777777777777778,33.15555555555556,0)" xlink:href="#br"/><use transform="matrix(0.017777777777777778,0,0,0.017777777777777778,37.351111111111116,0)" xlink:href="#bs"/><use transform="matrix(0.017777777777777778,0,0,0.017777777777777778,46.04444444444445,0)" xlink:href="#bs"/><use transform="matrix(0.017777777777777778,0,0,0.017777777777777778,54.73777777777779,0)" xlink:href="#br"/><use transform="matrix(0.017777777777777778,0,0,0.017777777777777778,58.933333333333344,0)" xlink:href="#bq"/></g><g id="w"><use transform="matrix(0.017777777777777778,0,0,0.017777777777777778,0,0)" xlink:href="#by"/><use transform="matrix(0.017777777777777778,0,0,0.017777777777777778,10.097777777777777,0)" xlink:href="#bj"/><use transform="matrix(0.017777777777777778,0,0,0.017777777777777778,19.11111111111111,0)" xlink:href="#bx"/><use transform="matrix(0.017777777777777778,0,0,0.017777777777777778,26.88,0)" xlink:href="#bp"/></g><path d="M484-696h80L383 0H212L29-696h80L271-73h53" id="bC"/><path d="M24-500h78L222-64h37l122-436h76L315 0H165" id="bD"/><g id="x"><use transform="matrix(0.017777777777777778,0,0,0.017777777777777778,0,0)" xlink:href="#bC"/><use transform="matrix(0.017777777777777778,0,0,0.017777777777777778,10.542222222222222,0)" xlink:href="#br"/><use transform="matrix(0.017777777777777778,0,0,0.017777777777777778,14.737777777777778,0)" xlink:href="#bD"/><use transform="matrix(0.017777777777777778,0,0,0.017777777777777778,23.30666666666667,0)" xlink:href="#bk"/><use transform="matrix(0.017777777777777778,0,0,0.017777777777777778,32.586666666666666,0)" xlink:href="#bq"/><use transform="matrix(0.017777777777777778,0,0,0.017777777777777778,47.946666666666665,0)" xlink:href="#bt"/><use transform="matrix(0.017777777777777778,0,0,0.017777777777777778,57.88444444444445,0)" xlink:href="#bs"/></g><use transform="matrix(0.017777777777777778,0,0,0.017777777777777778,0,0)" xlink:href="#bk" id="y"/><g id="z"><use transform="matrix(0.017777777777777778,0,0,0.017777777777777778,0,0)" xlink:href="#bq"/><use transform="matrix(0.017777777777777778,0,0,0.017777777777777778,15.36,0)" xlink:href="#br"/></g><g id="A"><use transform="matrix(0.017777777777777778,0,0,0.017777777777777778,0,0)" xlink:href="#bD"/><use transform="matrix(0.017777777777777778,0,0,0.017777777777777778,8.568888888888889,0)" xlink:href="#bj"/><use transform="matrix(0.017777777777777778,0,0,0.017777777777777778,17.58222222222222,0)" xlink:href="#bu"/><use transform="matrix(0.017777777777777778,0,0,0.017777777777777778,21.884444444444444,0)" xlink:href="#br"/><use transform="matrix(0.017777777777777778,0,0,0.017777777777777778,26.08,0)" xlink:href="#bv"/><use transform="matrix(0.017777777777777778,0,0,0.017777777777777778,32.53333333333333,0)" xlink:href="#bp"/></g><path d="M343-233H167V0H90v-696h253c151 0 221 72 221 223s-70 240-221 240zm-176-74h175c101 0 143-63 143-166 0-102-42-149-143-149H167v315" id="bE"/><g id="B"><use transform="matrix(0.017777777777777778,0,0,0.017777777777777778,0,0)" xlink:href="#bE"/><use transform="matrix(0.017777777777777778,0,0,0.017777777777777778,10.773333333333333,0)" xlink:href="#bn"/><use transform="matrix(0.017777777777777778,0,0,0.017777777777777778,17.102222222222224,0)" xlink:href="#bk"/><use transform="matrix(0.017777777777777778,0,0,0.017777777777777778,26.382222222222225,0)" xlink:href="#bj"/><use transform="matrix(0.017777777777777778,0,0,0.017777777777777778,35.39555555555556,0)" xlink:href="#bs"/><use transform="matrix(0.017777777777777778,0,0,0.017777777777777778,44.088888888888896,0)" xlink:href="#bj"/><use transform="matrix(0.017777777777777778,0,0,0.017777777777777778,53.10222222222223,0)" xlink:href="#by"/><use transform="matrix(0.017777777777777778,0,0,0.017777777777777778,63.20000000000001,0)" xlink:href="#bv"/></g><g id="C"><use transform="matrix(0.017777777777777778,0,0,0.017777777777777778,0,0)" xlink:href="#bD"/><use transform="matrix(0.017777777777777778,0,0,0.017777777777777778,8.568888888888889,0)" xlink:href="#bj"/><use transform="matrix(0.017777777777777778,0,0,0.017777777777777778,17.58222222222222,0)" xlink:href="#bu"/></g><g id="D"><use transform="matrix(0.017777777777777778,0,0,0.017777777777777778,0,0)" xlink:href="#bv"/><use transform="matrix(0.017777777777777778,0,0,0.017777777777777778,6.453333333333333,0)" xlink:href="#bh"/><use transform="matrix(0.017777777777777778,0,0,0.017777777777777778,15.84,0)" xlink:href="#bn"/><use transform="matrix(0.017777777777777778,0,0,0.017777777777777778,22.16888888888889,0)" xlink:href="#bv"/><use transform="matrix(0.017777777777777778,0,0,0.017777777777777778,28.622222222222216,0)" xlink:href="#bh"/><use transform="matrix(0.017777777777777778,0,0,0.017777777777777778,38.00888888888889,0)" xlink:href="#bn"/></g><g id="E"><use transform="matrix(0.017777777777777778,0,0,0.017777777777777778,0,0)" xlink:href="#bl"/><use transform="matrix(0.017777777777777778,0,0,0.017777777777777778,9.653333333333334,0)" xlink:href="#br"/><use transform="matrix(0.017777777777777778,0,0,0.017777777777777778,13.84888888888889,0)" xlink:href="#bx"/><use transform="matrix(0.017777777777777778,0,0,0.017777777777777778,21.61777777777778,0)" xlink:href="#bv"/><use transform="matrix(0.017777777777777778,0,0,0.017777777777777778,28.07111111111111,0)" xlink:href="#bt"/><use transform="matrix(0.017777777777777778,0,0,0.017777777777777778,38.00888888888889,0)" xlink:href="#bq"/><use transform="matrix(0.017777777777777778,0,0,0.017777777777777778,53.36888888888889,0)" xlink:href="#bw"/></g><g id="F"><use transform="matrix(0.017777777777777778,0,0,0.017777777777777778,0,0)" xlink:href="#bq"/><use transform="matrix(0.017777777777777778,0,0,0.017777777777777778,15.36,0)" xlink:href="#bh"/><use transform="matrix(0.017777777777777778,0,0,0.017777777777777778,24.746666666666666,0)" xlink:href="#bu"/><use transform="matrix(0.017777777777777778,0,0,0.017777777777777778,29.04888888888889,0)" xlink:href="#bj"/><use transform="matrix(0.017777777777777778,0,0,0.017777777777777778,38.062222222222225,0)" xlink:href="#bs"/><use transform="matrix(0.017777777777777778,0,0,0.017777777777777778,46.75555555555557,0)" xlink:href="#bv"/><use transform="matrix(0.017777777777777778,0,0,0.017777777777777778,53.2088888888889,0)" xlink:href="#br"/><use transform="matrix(0.017777777777777778,0,0,0.017777777777777778,57.40444444444445,0)" xlink:href="#bj"/></g><g id="G"><use transform="matrix(0.017777777777777778,0,0,0.017777777777777778,0,0)" xlink:href="#bu"/><use transform="matrix(0.017777777777777778,0,0,0.017777777777777778,4.302222222222222,0)" xlink:href="#bj"/><use transform="matrix(0.017777777777777778,0,0,0.017777777777777778,13.315555555555555,0)" xlink:href="#bh"/></g><g id="H"><use transform="matrix(0.017777777777777778,0,0,0.017777777777777778,0,0)" xlink:href="#by"/><use transform="matrix(0.017777777777777778,0,0,0.017777777777777778,10.097777777777777,0)" xlink:href="#bh"/><use transform="matrix(0.017777777777777778,0,0,0.017777777777777778,19.484444444444442,0)" xlink:href="#by"/><use transform="matrix(0.017777777777777778,0,0,0.017777777777777778,29.58222222222222,0)" xlink:href="#bw"/></g><g id="I"><use transform="matrix(0.017777777777777778,0,0,0.017777777777777778,0,0)" xlink:href="#bv"/><use transform="matrix(0.017777777777777778,0,0,0.017777777777777778,6.453333333333333,0)" xlink:href="#bj"/><use transform="matrix(0.017777777777777778,0,0,0.017777777777777778,15.466666666666667,0)" xlink:href="#bq"/><use transform="matrix(0.017777777777777778,0,0,0.017777777777777778,30.826666666666668,0)" xlink:href="#bm"/><use transform="matrix(0.017777777777777778,0,0,0.017777777777777778,40.46222222222222,0)" xlink:href="#bh"/><use transform="matrix(0.017777777777777778,0,0,0.017777777777777778,49.848888888888894,0)" xlink:href="#bn"/></g><g id="J"><use transform="matrix(0.017777777777777778,0,0,0.017777777777777778,0,0)" xlink:href="#bD"/><use transform="matrix(0.017777777777777778,0,0,0.017777777777777778,8.568888888888889,0)" xlink:href="#bj"/><use transform="matrix(0.017777777777777778,0,0,0.017777777777777778,17.58222222222222,0)" xlink:href="#bu"/><use transform="matrix(0.017777777777777778,0,0,0.017777777777777778,21.884444444444444,0)" xlink:href="#br"/><use transform="matrix(0.017777777777777778,0,0,0.017777777777777778,26.08,0)" xlink:href="#bv"/><use transform="matrix(0.017777777777777778,0,0,0.017777777777777778,32.53333333333333,0)" xlink:href="#bp"/></g><path d="M29 0l190-696h169L575-1h-76l-53-174H156L106 0H29zm248-625L174-249h256L327-625h-50" id="bF"/><path d="M54-432v-68h371v68L144-68h281V0H54v-68l281-364H54" id="bG"/><g id="K"><use transform="matrix(0.02666666666666667,0,0,0.02666666666666667,0,0)" xlink:href="#bF"/><use transform="matrix(0.02666666666666667,0,0,0.02666666666666667,16.10666666666667,0)" xlink:href="#bq"/><use transform="matrix(0.02666666666666667,0,0,0.02666666666666667,39.146666666666675,0)" xlink:href="#bk"/><use transform="matrix(0.02666666666666667,0,0,0.02666666666666667,53.06666666666668,0)" xlink:href="#bG"/><use transform="matrix(0.02666666666666667,0,0,0.02666666666666667,65.84,0)" xlink:href="#br"/><use transform="matrix(0.02666666666666667,0,0,0.02666666666666667,72.13333333333334,0)" xlink:href="#by"/><use transform="matrix(0.02666666666666667,0,0,0.02666666666666667,87.28,0)" xlink:href="#bi"/></g><path d="M519 0v-314H167V0H90v-696h77v308h352v-308h76V0h-76" id="bH"/><g id="L"><use transform="matrix(0.02666666666666667,0,0,0.02666666666666667,0,0)" xlink:href="#bH"/><use transform="matrix(0.02666666666666667,0,0,0.02666666666666667,18.26666666666667,0)" xlink:href="#bj"/><use transform="matrix(0.02666666666666667,0,0,0.02666666666666667,31.78666666666667,0)" xlink:href="#bk"/><use transform="matrix(0.02666666666666667,0,0,0.02666666666666667,45.70666666666667,0)" xlink:href="#bl"/><use transform="matrix(0.02666666666666667,0,0,0.02666666666666667,60.18666666666667,0)" xlink:href="#bu"/><use transform="matrix(0.02666666666666667,0,0,0.02666666666666667,66.64,0)" xlink:href="#br"/><use transform="matrix(0.02666666666666667,0,0,0.02666666666666667,72.93333333333334,0)" xlink:href="#by"/><use transform="matrix(0.02666666666666667,0,0,0.02666666666666667,88.08000000000001,0)" xlink:href="#bj"/></g><path d="M37-696h79L243-77h29l134-613h87L631-77h29l124-619h79L715 0H575L450-581 327 0H188" id="bI"/><g id="M"><use transform="matrix(0.02666666666666667,0,0,0.02666666666666667,0,0)" xlink:href="#bI"/><use transform="matrix(0.02666666666666667,0,0,0.02666666666666667,24,0)" xlink:href="#bo"/><use transform="matrix(0.02666666666666667,0,0,0.02666666666666667,39.06666666666667,0)" xlink:href="#bk"/><use transform="matrix(0.02666666666666667,0,0,0.02666666666666667,52.98666666666667,0)" xlink:href="#bv"/></g><g id="N"><use transform="matrix(0.02666666666666667,0,0,0.02666666666666667,0,0)" xlink:href="#br"/><use transform="matrix(0.02666666666666667,0,0,0.02666666666666667,6.293333333333334,0)" xlink:href="#bs"/></g><g id="O"><use transform="matrix(0.02666666666666667,0,0,0.02666666666666667,0,0)" xlink:href="#bh"/><use transform="matrix(0.02666666666666667,0,0,0.02666666666666667,14.08,0)" xlink:href="#bt"/><use transform="matrix(0.02666666666666667,0,0,0.02666666666666667,28.986666666666668,0)" xlink:href="#bn"/></g><path d="M386-537c0 171-190 206-190 301v38h-79v-41c0-129 189-162 189-291 0-77-38-104-132-104-50 0-157 24-157 24l-9-74s114-27 168-27c139 0 210 45 210 174zM116-1v-114h82V-1h-82" id="bJ"/><g id="P"><use transform="matrix(0.02666666666666667,0,0,0.02666666666666667,0,0)" xlink:href="#bm"/><use transform="matrix(0.02666666666666667,0,0,0.02666666666666667,14.453333333333335,0)" xlink:href="#bn"/><use transform="matrix(0.02666666666666667,0,0,0.02666666666666667,23.94666666666667,0)" xlink:href="#bh"/><use transform="matrix(0.02666666666666667,0,0,0.02666666666666667,38.02666666666667,0)" xlink:href="#bl"/><use transform="matrix(0.02666666666666667,0,0,0.02666666666666667,52.506666666666675,0)" xlink:href="#bt"/><use transform="matrix(0.02666666666666667,0,0,0.02666666666666667,67.41333333333334,0)" xlink:href="#bx"/><use transform="matrix(0.02666666666666667,0,0,0.02666666666666667,79.06666666666668,0)" xlink:href="#bv"/><use transform="matrix(0.02666666666666667,0,0,0.02666666666666667,88.74666666666668,0)" xlink:href="#bJ"/></g><path d="M90 0v-696h138L504-90h22v-606h77V0H468L188-606h-21V0H90" id="bK"/><path d="M27-500h81l122 196 122-196h82L277-250 434 0h-82L230-195 109 0H27l156-250" id="bL"/><g id="Q"><use transform="matrix(0.017777777777777778,0,0,0.017777777777777778,0,0)" xlink:href="#bK"/><use transform="matrix(0.017777777777777778,0,0,0.017777777777777778,12.32,0)" xlink:href="#bj"/><use transform="matrix(0.017777777777777778,0,0,0.017777777777777778,21.333333333333336,0)" xlink:href="#bL"/><use transform="matrix(0.017777777777777778,0,0,0.017777777777777778,29.511111111111113,0)" xlink:href="#bv"/></g><path d="M497 145L409 1c-24 6-52 9-83 9C110 10 52-112 52-344c0-230 60-362 274-362s273 131 273 362c0 163-27 268-114 319l84 136zM326-63c160 0 194-90 194-281 0-184-37-289-194-289-159 0-194 104-194 289S165-63 326-63" id="bM"/><path d="M249 10C102 10 50-80 50-241c0-176 54-269 228-269 52 0 172 10 172 10v722h-75V-17s-54 27-126 27zm30-452c-120 0-153 66-153 200 0 119 31 185 123 185 67 0 126-31 126-31v-350s-65-4-96-4" id="bN"/><g id="R"><use transform="matrix(0.017777777777777778,0,0,0.017777777777777778,0,0)" xlink:href="#bM"/><use transform="matrix(0.017777777777777778,0,0,0.017777777777777778,11.573333333333334,0)" xlink:href="#bt"/><use transform="matrix(0.017777777777777778,0,0,0.017777777777777778,21.511111111111113,0)" xlink:href="#br"/><use transform="matrix(0.017777777777777778,0,0,0.017777777777777778,25.70666666666667,0)" xlink:href="#bs"/><use transform="matrix(0.017777777777777778,0,0,0.017777777777777778,34.400000000000006,0)" xlink:href="#bN"/><use transform="matrix(0.017777777777777778,0,0,0.017777777777777778,43.94666666666667,0)" xlink:href="#bt"/><use transform="matrix(0.017777777777777778,0,0,0.017777777777777778,53.88444444444445,0)" xlink:href="#bj"/></g><g id="S"><use transform="matrix(0.017777777777777778,0,0,0.017777777777777778,0,0)" xlink:href="#by"/><use transform="matrix(0.017777777777777778,0,0,0.017777777777777778,10.097777777777777,0)" xlink:href="#br"/><use transform="matrix(0.017777777777777778,0,0,0.017777777777777778,14.293333333333333,0)" xlink:href="#bs"/><use transform="matrix(0.017777777777777778,0,0,0.017777777777777778,22.98666666666666,0)" xlink:href="#br"/></g><g id="T"><use transform="matrix(0.017777777777777778,0,0,0.017777777777777778,0,0)" xlink:href="#bo"/><use transform="matrix(0.017777777777777778,0,0,0.017777777777777778,10.044444444444444,0)" xlink:href="#bj"/><use transform="matrix(0.017777777777777778,0,0,0.017777777777777778,19.057777777777776,0)" xlink:href="#by"/><use transform="matrix(0.017777777777777778,0,0,0.017777777777777778,29.15555555555556,0)" xlink:href="#bl"/><use transform="matrix(0.017777777777777778,0,0,0.017777777777777778,38.808888888888895,0)" xlink:href="#bn"/><use transform="matrix(0.017777777777777778,0,0,0.017777777777777778,45.137777777777785,0)" xlink:href="#bj"/><use transform="matrix(0.017777777777777778,0,0,0.017777777777777778,54.15111111111112,0)" xlink:href="#bn"/><use transform="matrix(0.017777777777777778,0,0,0.017777777777777778,60.48000000000001,0)" xlink:href="#br"/><use transform="matrix(0.017777777777777778,0,0,0.017777777777777778,64.67555555555556,0)" xlink:href="#bv"/></g><g id="U"><use transform="matrix(0.017777777777777778,0,0,0.017777777777777778,0,0)" xlink:href="#bD"/><use transform="matrix(0.017777777777777778,0,0,0.017777777777777778,8.568888888888889,0)" xlink:href="#bj"/><use transform="matrix(0.017777777777777778,0,0,0.017777777777777778,17.58222222222222,0)" xlink:href="#by"/><use transform="matrix(0.017777777777777778,0,0,0.017777777777777778,27.68,0)" xlink:href="#bj"/><use transform="matrix(0.017777777777777778,0,0,0.017777777777777778,36.693333333333335,0)" xlink:href="#by"/><use transform="matrix(0.017777777777777778,0,0,0.017777777777777778,46.791111111111114,0)" xlink:href="#bk"/><use transform="matrix(0.017777777777777778,0,0,0.017777777777777778,56.07111111111112,0)" xlink:href="#bv"/><use transform="matrix(0.017777777777777778,0,0,0.017777777777777778,62.52444444444444,0)" xlink:href="#br"/><use transform="matrix(0.017777777777777778,0,0,0.017777777777777778,66.72,0)" xlink:href="#bs"/></g><g id="V"><use transform="matrix(0.017777777777777778,0,0,0.017777777777777778,0,0)" xlink:href="#bB"/><use transform="matrix(0.017777777777777778,0,0,0.017777777777777778,9.617777777777778,0)" xlink:href="#bu"/><use transform="matrix(0.017777777777777778,0,0,0.017777777777777778,13.920000000000002,0)" xlink:href="#bk"/><use transform="matrix(0.017777777777777778,0,0,0.017777777777777778,23.200000000000003,0)" xlink:href="#by"/><use transform="matrix(0.017777777777777778,0,0,0.017777777777777778,33.29777777777778,0)" xlink:href="#bl"/><use transform="matrix(0.017777777777777778,0,0,0.017777777777777778,42.95111111111112,0)" xlink:href="#br"/><use transform="matrix(0.017777777777777778,0,0,0.017777777777777778,47.146666666666675,0)" xlink:href="#bv"/><use transform="matrix(0.017777777777777778,0,0,0.017777777777777778,53.60000000000001,0)" xlink:href="#bp"/></g><g id="W"><use transform="matrix(0.017777777777777778,0,0,0.017777777777777778,0,0)" xlink:href="#bF"/><use transform="matrix(0.017777777777777778,0,0,0.017777777777777778,10.737777777777778,0)" xlink:href="#bj"/><use transform="matrix(0.017777777777777778,0,0,0.017777777777777778,19.75111111111111,0)" xlink:href="#by"/><use transform="matrix(0.017777777777777778,0,0,0.017777777777777778,29.848888888888887,0)" xlink:href="#bj"/><use transform="matrix(0.017777777777777778,0,0,0.017777777777777778,38.86222222222222,0)" xlink:href="#bk"/><use transform="matrix(0.017777777777777778,0,0,0.017777777777777778,48.14222222222222,0)" xlink:href="#by"/></g><g id="X"><use transform="matrix(0.017777777777777778,0,0,0.017777777777777778,0,0)" xlink:href="#bj"/><use transform="matrix(0.017777777777777778,0,0,0.017777777777777778,9.013333333333334,0)" xlink:href="#bs"/><use transform="matrix(0.017777777777777778,0,0,0.017777777777777778,17.706666666666667,0)" xlink:href="#bv"/></g><g id="Y"><use transform="matrix(0.017777777777777778,0,0,0.017777777777777778,0,0)" xlink:href="#bu"/><use transform="matrix(0.017777777777777778,0,0,0.017777777777777778,4.302222222222222,0)" xlink:href="#br"/><use transform="matrix(0.017777777777777778,0,0,0.017777777777777778,8.497777777777777,0)" xlink:href="#bB"/><use transform="matrix(0.017777777777777778,0,0,0.017777777777777778,18.115555555555556,0)" xlink:href="#bj"/><use transform="matrix(0.017777777777777778,0,0,0.017777777777777778,27.128888888888888,0)" xlink:href="#bn"/><use transform="matrix(0.017777777777777778,0,0,0.017777777777777778,33.45777777777778,0)" xlink:href="#bh"/><use transform="matrix(0.017777777777777778,0,0,0.017777777777777778,42.844444444444456,0)" xlink:href="#bw"/></g><g id="Z"><use transform="matrix(0.017777777777777778,0,0,0.017777777777777778,0,0)" xlink:href="#bk"/><use transform="matrix(0.017777777777777778,0,0,0.017777777777777778,9.28,0)" xlink:href="#bx"/><use transform="matrix(0.017777777777777778,0,0,0.017777777777777778,17.04888888888889,0)" xlink:href="#bx"/><use transform="matrix(0.017777777777777778,0,0,0.017777777777777778,24.817777777777778,0)" xlink:href="#bt"/><use transform="matrix(0.017777777777777778,0,0,0.017777777777777778,34.75555555555555,0)" xlink:href="#bq"/><use transform="matrix(0.017777777777777778,0,0,0.017777777777777778,50.11555555555555,0)" xlink:href="#bs"/><use transform="matrix(0.017777777777777778,0,0,0.017777777777777778,58.80888888888889,0)" xlink:href="#bk"/><use transform="matrix(0.017777777777777778,0,0,0.017777777777777778,68.08888888888889,0)" xlink:href="#by"/></g><g id="aa"><use transform="matrix(0.017777777777777778,0,0,0.017777777777777778,0,0)" xlink:href="#bD"/><use transform="matrix(0.017777777777777778,0,0,0.017777777777777778,8.568888888888889,0)" xlink:href="#br"/><use transform="matrix(0.017777777777777778,0,0,0.017777777777777778,12.764444444444445,0)" xlink:href="#bv"/><use transform="matrix(0.017777777777777778,0,0,0.017777777777777778,19.217777777777776,0)" xlink:href="#bk"/><use transform="matrix(0.017777777777777778,0,0,0.017777777777777778,28.497777777777777,0)" xlink:href="#bj"/></g><g id="ab"><use transform="matrix(0.017777777777777778,0,0,0.017777777777777778,0,0)" xlink:href="#bj"/><use transform="matrix(0.017777777777777778,0,0,0.017777777777777778,9.013333333333334,0)" xlink:href="#bt"/><use transform="matrix(0.017777777777777778,0,0,0.017777777777777778,18.95111111111111,0)" xlink:href="#br"/><use transform="matrix(0.017777777777777778,0,0,0.017777777777777778,23.14666666666667,0)" xlink:href="#bs"/><use transform="matrix(0.017777777777777778,0,0,0.017777777777777778,31.840000000000003,0)" xlink:href="#bq"/><use transform="matrix(0.017777777777777778,0,0,0.017777777777777778,47.2,0)" xlink:href="#bh"/><use transform="matrix(0.017777777777777778,0,0,0.017777777777777778,56.58666666666667,0)" xlink:href="#bl"/></g><g id="ac"><use transform="matrix(0.017777777777777778,0,0,0.017777777777777778,0,0)" xlink:href="#bs"/><use transform="matrix(0.017777777777777778,0,0,0.017777777777777778,8.693333333333333,0)" xlink:href="#bj"/><use transform="matrix(0.017777777777777778,0,0,0.017777777777777778,17.706666666666667,0)" xlink:href="#bl"/><use transform="matrix(0.017777777777777778,0,0,0.017777777777777778,27.36,0)" xlink:href="#bw"/></g><g id="ad"><use transform="matrix(0.017777777777777778,0,0,0.017777777777777778,0,0)" xlink:href="#bu"/><use transform="matrix(0.017777777777777778,0,0,0.017777777777777778,4.302222222222222,0)" xlink:href="#bk"/><use transform="matrix(0.017777777777777778,0,0,0.017777777777777778,13.58222222222222,0)" xlink:href="#bx"/><use transform="matrix(0.017777777777777778,0,0,0.017777777777777778,21.351111111111113,0)" xlink:href="#br"/><use transform="matrix(0.017777777777777778,0,0,0.017777777777777778,25.546666666666667,0)" xlink:href="#by"/><use transform="matrix(0.017777777777777778,0,0,0.017777777777777778,35.644444444444446,0)" xlink:href="#br"/><use transform="matrix(0.017777777777777778,0,0,0.017777777777777778,39.84,0)" xlink:href="#bk"/></g><g id="ae"><use transform="matrix(0.017777777777777778,0,0,0.017777777777777778,0,0)" xlink:href="#by"/><use transform="matrix(0.017777777777777778,0,0,0.017777777777777778,10.097777777777777,0)" xlink:href="#bj"/><use transform="matrix(0.017777777777777778,0,0,0.017777777777777778,19.11111111111111,0)" xlink:href="#bx"/></g><path d="M337 0H90v-696h247c200 0 256 140 256 337C593-160 540 0 337 0zm176-359c0-146-33-264-176-264H166v550h171c143 0 176-139 176-286" id="bO"/><g id="af"><use transform="matrix(0.017777777777777778,0,0,0.017777777777777778,0,0)" xlink:href="#bO"/><use transform="matrix(0.017777777777777778,0,0,0.017777777777777778,11.413333333333334,0)" xlink:href="#bt"/><use transform="matrix(0.017777777777777778,0,0,0.017777777777777778,21.351111111111113,0)" xlink:href="#br"/><use transform="matrix(0.017777777777777778,0,0,0.017777777777777778,25.546666666666667,0)" xlink:href="#bs"/></g><g id="ag"><use transform="matrix(0.017777777777777778,0,0,0.017777777777777778,0,0)" xlink:href="#bN"/><use transform="matrix(0.017777777777777778,0,0,0.017777777777777778,9.546666666666667,0)" xlink:href="#bt"/><use transform="matrix(0.017777777777777778,0,0,0.017777777777777778,19.484444444444442,0)" xlink:href="#br"/><use transform="matrix(0.017777777777777778,0,0,0.017777777777777778,23.68,0)" xlink:href="#bs"/></g><g id="ah"><use transform="matrix(0.017777777777777778,0,0,0.017777777777777778,0,0)" xlink:href="#bu"/><use transform="matrix(0.017777777777777778,0,0,0.017777777777777778,4.302222222222222,0)" xlink:href="#bh"/><use transform="matrix(0.017777777777777778,0,0,0.017777777777777778,13.688888888888892,0)" xlink:href="#bn"/><use transform="matrix(0.017777777777777778,0,0,0.017777777777777778,20.01777777777778,0)" xlink:href="#bj"/><use transform="matrix(0.017777777777777778,0,0,0.017777777777777778,29.031111111111116,0)" xlink:href="#bq"/></g><g id="ai"><use transform="matrix(0.017777777777777778,0,0,0.017777777777777778,0,0)" xlink:href="#bu"/><use transform="matrix(0.017777777777777778,0,0,0.017777777777777778,4.302222222222222,0)" xlink:href="#bk"/><use transform="matrix(0.017777777777777778,0,0,0.017777777777777778,13.58222222222222,0)" xlink:href="#bx"/><use transform="matrix(0.017777777777777778,0,0,0.017777777777777778,21.351111111111113,0)" xlink:href="#bt"/><use transform="matrix(0.017777777777777778,0,0,0.017777777777777778,31.288888888888884,0)" xlink:href="#bs"/><use transform="matrix(0.017777777777777778,0,0,0.017777777777777778,39.98222222222222,0)" xlink:href="#bp"/></g><g id="aj"><use transform="matrix(0.017777777777777778,0,0,0.017777777777777778,0,0)" xlink:href="#bF"/><use transform="matrix(0.017777777777777778,0,0,0.017777777777777778,10.737777777777778,0)" xlink:href="#bu"/><use transform="matrix(0.017777777777777778,0,0,0.017777777777777778,15.04,0)" xlink:href="#br"/><use transform="matrix(0.017777777777777778,0,0,0.017777777777777778,19.235555555555557,0)" xlink:href="#bN"/><use transform="matrix(0.017777777777777778,0,0,0.017777777777777778,28.782222222222224,0)" xlink:href="#bt"/><use transform="matrix(0.017777777777777778,0,0,0.017777777777777778,38.72,0)" xlink:href="#bk"/><use transform="matrix(0.017777777777777778,0,0,0.017777777777777778,48,0)" xlink:href="#bq"/></g><g id="ak"><use transform="matrix(0.017777777777777778,0,0,0.017777777777777778,0,0)" xlink:href="#bm"/><use transform="matrix(0.017777777777777778,0,0,0.017777777777777778,9.635555555555555,0)" xlink:href="#bh"/><use transform="matrix(0.017777777777777778,0,0,0.017777777777777778,19.022222222222222,0)" xlink:href="#bn"/><use transform="matrix(0.017777777777777778,0,0,0.017777777777777778,25.351111111111113,0)" xlink:href="#bv"/><use transform="matrix(0.017777777777777778,0,0,0.017777777777777778,31.80444444444444,0)" xlink:href="#bv"/><use transform="matrix(0.017777777777777778,0,0,0.017777777777777778,38.257777777777775,0)" xlink:href="#br"/><use transform="matrix(0.017777777777777778,0,0,0.017777777777777778,42.45333333333333,0)" xlink:href="#bv"/><use transform="matrix(0.017777777777777778,0,0,0.017777777777777778,48.906666666666666,0)" xlink:href="#bh"/><use transform="matrix(0.017777777777777778,0,0,0.017777777777777778,58.29333333333334,0)" xlink:href="#bn"/></g><g id="al"><use transform="matrix(0.017777777777777778,0,0,0.017777777777777778,0,0)" xlink:href="#bj"/><use transform="matrix(0.017777777777777778,0,0,0.017777777777777778,9.013333333333334,0)" xlink:href="#bn"/><use transform="matrix(0.017777777777777778,0,0,0.017777777777777778,15.342222222222222,0)" xlink:href="#bk"/><use transform="matrix(0.017777777777777778,0,0,0.017777777777777778,24.622222222222216,0)" xlink:href="#bv"/></g><g id="am"><use transform="matrix(0.017777777777777778,0,0,0.017777777777777778,0,0)" xlink:href="#br"/><use transform="matrix(0.017777777777777778,0,0,0.017777777777777778,4.195555555555556,0)" xlink:href="#by"/></g><g id="an"><use transform="matrix(0.017777777777777778,0,0,0.017777777777777778,0,0)" xlink:href="#bs"/><use transform="matrix(0.017777777777777778,0,0,0.017777777777777778,8.693333333333333,0)" xlink:href="#bj"/><use transform="matrix(0.017777777777777778,0,0,0.017777777777777778,17.706666666666667,0)" xlink:href="#bq"/></g><g id="ao"><use transform="matrix(0.017777777777777778,0,0,0.017777777777777778,0,0)" xlink:href="#bx"/><use transform="matrix(0.017777777777777778,0,0,0.017777777777777778,7.768888888888889,0)" xlink:href="#bh"/><use transform="matrix(0.017777777777777778,0,0,0.017777777777777778,17.155555555555555,0)" xlink:href="#by"/><use transform="matrix(0.017777777777777778,0,0,0.017777777777777778,27.25333333333333,0)" xlink:href="#bi"/><use transform="matrix(0.017777777777777778,0,0,0.017777777777777778,36.46222222222222,0)" xlink:href="#bt"/><use transform="matrix(0.017777777777777778,0,0,0.017777777777777778,46.4,0)" xlink:href="#bj"/></g><g id="ap"><use transform="matrix(0.017777777777777778,0,0,0.017777777777777778,0,0)" xlink:href="#bj"/><use transform="matrix(0.017777777777777778,0,0,0.017777777777777778,9.013333333333334,0)" xlink:href="#bi"/><use transform="matrix(0.017777777777777778,0,0,0.017777777777777778,18.22222222222222,0)" xlink:href="#bj"/><use transform="matrix(0.017777777777777778,0,0,0.017777777777777778,27.235555555555557,0)" xlink:href="#bs"/><use transform="matrix(0.017777777777777778,0,0,0.017777777777777778,35.92888888888889,0)" xlink:href="#bv"/><use transform="matrix(0.017777777777777778,0,0,0.017777777777777778,42.382222222222225,0)" xlink:href="#bk"/><use transform="matrix(0.017777777777777778,0,0,0.017777777777777778,51.66222222222223,0)" xlink:href="#bs"/><use transform="matrix(0.017777777777777778,0,0,0.017777777777777778,60.35555555555556,0)" xlink:href="#bp"/></g><g id="aq"><use transform="matrix(0.017777777777777778,0,0,0.017777777777777778,0,0)" xlink:href="#bF"/><use transform="matrix(0.017777777777777778,0,0,0.017777777777777778,10.737777777777778,0)" xlink:href="#bl"/><use transform="matrix(0.017777777777777778,0,0,0.017777777777777778,20.391111111111112,0)" xlink:href="#bD"/><use transform="matrix(0.017777777777777778,0,0,0.017777777777777778,28.96,0)" xlink:href="#bk"/><use transform="matrix(0.017777777777777778,0,0,0.017777777777777778,38.24,0)" xlink:href="#by"/><use transform="matrix(0.017777777777777778,0,0,0.017777777777777778,48.33777777777778,0)" xlink:href="#bv"/><use transform="matrix(0.017777777777777778,0,0,0.017777777777777778,54.791111111111114,0)" xlink:href="#bk"/><use transform="matrix(0.017777777777777778,0,0,0.017777777777777778,64.07111111111111,0)" xlink:href="#bi"/><use transform="matrix(0.017777777777777778,0,0,0.017777777777777778,73.28,0)" xlink:href="#bj"/></g><path d="M65-521l209-139h73V0h-77v-572L101-459" id="bP"/><use transform="matrix(0.017777777777777778,0,0,0.017777777777777778,0,0)" xlink:href="#bP" id="ar"/><path d="M479 0H57v-71l191-198c80-82 134-138 134-217 0-81-48-110-144-110-72 0-170 22-170 22l-6-71s98-26 191-26c139 0 209 53 209 177 0 99-44 157-134 248L160-74h319V0" id="bQ"/><use transform="matrix(0.017777777777777778,0,0,0.017777777777777778,0,0)" xlink:href="#bQ" id="as"/><path d="M61-647s103-24 195-24c156 0 211 55 211 172 0 103-79 135-99 148 67 24 115 55 115 162 0 133-66 199-215 199C164 10 50-13 50-13l8-70s108 19 202 19c98 0 143-41 143-122 0-142-137-119-269-120v-70h133c51 0 120-43 120-115 0-77-41-106-135-106-90 0-183 19-183 19" id="bR"/><use transform="matrix(0.017777777777777778,0,0,0.017777777777777778,0,0)" xlink:href="#bR" id="at"/><path d="M491-83l3 70S383 10 304 10C97 10 51-117 51-346c0-235 49-360 253-360 91 0 191 23 191 23l-4 69s-109-17-179-17c-155 0-182 93-182 285 0 188 26 281 184 281 62 0 177-18 177-18" id="bS"/><g id="au"><use transform="matrix(0.017777777777777778,0,0,0.017777777777777778,0,0)" xlink:href="#bS"/><use transform="matrix(0.017777777777777778,0,0,0.017777777777777778,9.528888888888888,0)" xlink:href="#bt"/><use transform="matrix(0.017777777777777778,0,0,0.017777777777777778,19.466666666666665,0)" xlink:href="#bn"/><use transform="matrix(0.017777777777777778,0,0,0.017777777777777778,25.795555555555552,0)" xlink:href="#bk"/><use transform="matrix(0.017777777777777778,0,0,0.017777777777777778,35.07555555555555,0)" xlink:href="#bB"/><use transform="matrix(0.017777777777777778,0,0,0.017777777777777778,44.69333333333333,0)" xlink:href="#br"/><use transform="matrix(0.017777777777777778,0,0,0.017777777777777778,48.888888888888886,0)" xlink:href="#bv"/><use transform="matrix(0.017777777777777778,0,0,0.017777777777777778,55.34222222222222,0)" xlink:href="#bt"/><use transform="matrix(0.017777777777777778,0,0,0.017777777777777778,65.28,0)" xlink:href="#bn"/></g><g id="av"><use transform="matrix(0.017777777777777778,0,0,0.017777777777777778,0,0)" xlink:href="#by"/><use transform="matrix(0.017777777777777778,0,0,0.017777777777777778,10.097777777777777,0)" xlink:href="#bh"/><use transform="matrix(0.017777777777777778,0,0,0.017777777777777778,19.484444444444442,0)" xlink:href="#by"/></g><g id="aw"><use transform="matrix(0.017777777777777778,0,0,0.017777777777777778,0,0)" xlink:href="#bv"/><use transform="matrix(0.017777777777777778,0,0,0.017777777777777778,6.453333333333333,0)" xlink:href="#bj"/><use transform="matrix(0.017777777777777778,0,0,0.017777777777777778,15.466666666666667,0)" xlink:href="#bu"/><use transform="matrix(0.017777777777777778,0,0,0.017777777777777778,19.76888888888889,0)" xlink:href="#bu"/><use transform="matrix(0.017777777777777778,0,0,0.017777777777777778,24.07111111111111,0)" xlink:href="#bt"/><use transform="matrix(0.017777777777777778,0,0,0.017777777777777778,34.00888888888889,0)" xlink:href="#bs"/></g><g id="ax"><use transform="matrix(0.017777777777777778,0,0,0.017777777777777778,0,0)" xlink:href="#bl"/><use transform="matrix(0.017777777777777778,0,0,0.017777777777777778,9.653333333333334,0)" xlink:href="#br"/><use transform="matrix(0.017777777777777778,0,0,0.017777777777777778,13.84888888888889,0)" xlink:href="#bx"/><use transform="matrix(0.017777777777777778,0,0,0.017777777777777778,21.61777777777778,0)" xlink:href="#bv"/><use transform="matrix(0.017777777777777778,0,0,0.017777777777777778,28.07111111111111,0)" xlink:href="#bt"/><use transform="matrix(0.017777777777777778,0,0,0.017777777777777778,38.00888888888889,0)" xlink:href="#bq"/><use transform="matrix(0.017777777777777778,0,0,0.017777777777777778,53.36888888888889,0)" xlink:href="#bw"/></g><g id="ay"><use transform="matrix(0.017777777777777778,0,0,0.017777777777777778,0,0)" xlink:href="#bu"/><use transform="matrix(0.017777777777777778,0,0,0.017777777777777778,4.302222222222222,0)" xlink:href="#bh"/><use transform="matrix(0.017777777777777778,0,0,0.017777777777777778,13.688888888888892,0)" xlink:href="#bB"/><use transform="matrix(0.017777777777777778,0,0,0.017777777777777778,23.30666666666667,0)" xlink:href="#bh"/><use transform="matrix(0.017777777777777778,0,0,0.017777777777777778,32.693333333333335,0)" xlink:href="#bn"/><use transform="matrix(0.017777777777777778,0,0,0.017777777777777778,39.022222222222226,0)" xlink:href="#bv"/><use transform="matrix(0.017777777777777778,0,0,0.017777777777777778,45.47555555555556,0)" xlink:href="#br"/><use transform="matrix(0.017777777777777778,0,0,0.017777777777777778,49.67111111111112,0)" xlink:href="#bs"/></g><g id="az"><use transform="matrix(0.017777777777777778,0,0,0.017777777777777778,0,0)" xlink:href="#bl"/><use transform="matrix(0.017777777777777778,0,0,0.017777777777777778,9.653333333333334,0)" xlink:href="#bh"/><use transform="matrix(0.017777777777777778,0,0,0.017777777777777778,19.04,0)" xlink:href="#bu"/><use transform="matrix(0.017777777777777778,0,0,0.017777777777777778,23.342222222222222,0)" xlink:href="#bh"/><use transform="matrix(0.017777777777777778,0,0,0.017777777777777778,32.72888888888889,0)" xlink:href="#bn"/></g><g id="aA"><use transform="matrix(0.017777777777777778,0,0,0.017777777777777778,0,0)" xlink:href="#by"/><use transform="matrix(0.017777777777777778,0,0,0.017777777777777778,10.097777777777777,0)" xlink:href="#bj"/><use transform="matrix(0.017777777777777778,0,0,0.017777777777777778,19.11111111111111,0)" xlink:href="#bx"/><use transform="matrix(0.017777777777777778,0,0,0.017777777777777778,26.88,0)" xlink:href="#bw"/></g><g id="aB"><use transform="matrix(0.017777777777777778,0,0,0.017777777777777778,0,0)" xlink:href="#bi"/><use transform="matrix(0.017777777777777778,0,0,0.017777777777777778,9.20888888888889,0)" xlink:href="#bn"/><use transform="matrix(0.017777777777777778,0,0,0.017777777777777778,15.537777777777778,0)" xlink:href="#bk"/><use transform="matrix(0.017777777777777778,0,0,0.017777777777777778,24.817777777777778,0)" xlink:href="#bD"/><use transform="matrix(0.017777777777777778,0,0,0.017777777777777778,33.38666666666667,0)" xlink:href="#br"/><use transform="matrix(0.017777777777777778,0,0,0.017777777777777778,37.58222222222223,0)" xlink:href="#bl"/><use transform="matrix(0.017777777777777778,0,0,0.017777777777777778,47.235555555555564,0)" xlink:href="#bk"/></g><g id="aC"><use transform="matrix(0.017777777777777778,0,0,0.017777777777777778,0,0)" xlink:href="#bl"/><use transform="matrix(0.017777777777777778,0,0,0.017777777777777778,9.653333333333334,0)" xlink:href="#br"/><use transform="matrix(0.017777777777777778,0,0,0.017777777777777778,13.84888888888889,0)" xlink:href="#bk"/><use transform="matrix(0.017777777777777778,0,0,0.017777777777777778,23.128888888888888,0)" xlink:href="#bq"/><use transform="matrix(0.017777777777777778,0,0,0.017777777777777778,38.48888888888889,0)" xlink:href="#bp"/></g><g id="aD"><use transform="matrix(0.017777777777777778,0,0,0.017777777777777778,0,0)" xlink:href="#bO"/><use transform="matrix(0.017777777777777778,0,0,0.017777777777777778,11.413333333333334,0)" xlink:href="#bh"/><use transform="matrix(0.017777777777777778,0,0,0.017777777777777778,20.8,0)" xlink:href="#by"/><use transform="matrix(0.017777777777777778,0,0,0.017777777777777778,30.897777777777776,0)" xlink:href="#bj"/><use transform="matrix(0.017777777777777778,0,0,0.017777777777777778,39.91111111111111,0)" xlink:href="#bx"/></g><g id="aE"><use transform="matrix(0.017777777777777778,0,0,0.017777777777777778,0,0)" xlink:href="#bj"/><use transform="matrix(0.017777777777777778,0,0,0.017777777777777778,9.013333333333334,0)" xlink:href="#bL"/></g><g id="aF"><use transform="matrix(0.017777777777777778,0,0,0.017777777777777778,0,0)" xlink:href="#bk"/><use transform="matrix(0.017777777777777778,0,0,0.017777777777777778,9.28,0)" xlink:href="#bx"/></g><g id="aG"><use transform="matrix(0.017777777777777778,0,0,0.017777777777777778,0,0)" xlink:href="#bv"/><use transform="matrix(0.017777777777777778,0,0,0.017777777777777778,6.453333333333333,0)" xlink:href="#bj"/><use transform="matrix(0.017777777777777778,0,0,0.017777777777777778,15.466666666666667,0)" xlink:href="#bu"/><use transform="matrix(0.017777777777777778,0,0,0.017777777777777778,19.76888888888889,0)" xlink:href="#bu"/><use transform="matrix(0.017777777777777778,0,0,0.017777777777777778,24.07111111111111,0)" xlink:href="#bt"/><use transform="matrix(0.017777777777777778,0,0,0.017777777777777778,34.00888888888889,0)" xlink:href="#bs"/></g><g id="aH"><use transform="matrix(0.017777777777777778,0,0,0.017777777777777778,0,0)" xlink:href="#bD"/><use transform="matrix(0.017777777777777778,0,0,0.017777777777777778,8.568888888888889,0)" xlink:href="#bj"/><use transform="matrix(0.017777777777777778,0,0,0.017777777777777778,17.58222222222222,0)" xlink:href="#bo"/><use transform="matrix(0.017777777777777778,0,0,0.017777777777777778,27.626666666666665,0)" xlink:href="#br"/><use transform="matrix(0.017777777777777778,0,0,0.017777777777777778,31.822222222222223,0)" xlink:href="#bx"/><use transform="matrix(0.017777777777777778,0,0,0.017777777777777778,39.59111111111111,0)" xlink:href="#bt"/><use transform="matrix(0.017777777777777778,0,0,0.017777777777777778,49.528888888888886,0)" xlink:href="#bu"/><use transform="matrix(0.017777777777777778,0,0,0.017777777777777778,53.831111111111106,0)" xlink:href="#bk"/></g><g id="aI"><use transform="matrix(0.017777777777777778,0,0,0.017777777777777778,0,0)" xlink:href="#bs"/><use transform="matrix(0.017777777777777778,0,0,0.017777777777777778,8.693333333333333,0)" xlink:href="#bx"/><use transform="matrix(0.017777777777777778,0,0,0.017777777777777778,16.462222222222223,0)" xlink:href="#bj"/><use transform="matrix(0.017777777777777778,0,0,0.017777777777777778,25.47555555555556,0)" xlink:href="#bu"/><use transform="matrix(0.017777777777777778,0,0,0.017777777777777778,29.777777777777782,0)" xlink:href="#bj"/><use transform="matrix(0.017777777777777778,0,0,0.017777777777777778,38.791111111111114,0)" xlink:href="#bn"/><use transform="matrix(0.017777777777777778,0,0,0.017777777777777778,45.120000000000005,0)" xlink:href="#br"/><use transform="matrix(0.017777777777777778,0,0,0.017777777777777778,49.31555555555556,0)" xlink:href="#bs"/><use transform="matrix(0.017777777777777778,0,0,0.017777777777777778,58.0088888888889,0)" xlink:href="#bN"/><use transform="matrix(0.017777777777777778,0,0,0.017777777777777778,67.55555555555557,0)" xlink:href="#bt"/><use transform="matrix(0.017777777777777778,0,0,0.017777777777777778,77.49333333333335,0)" xlink:href="#bj"/></g><g id="aJ"><use transform="matrix(0.017777777777777778,0,0,0.017777777777777778,0,0)" xlink:href="#bs"/><use transform="matrix(0.017777777777777778,0,0,0.017777777777777778,8.693333333333333,0)" xlink:href="#bj"/><use transform="matrix(0.017777777777777778,0,0,0.017777777777777778,17.706666666666667,0)" xlink:href="#bl"/></g><g id="aK"><use transform="matrix(0.017777777777777778,0,0,0.017777777777777778,0,0)" xlink:href="#bl"/><use transform="matrix(0.017777777777777778,0,0,0.017777777777777778,9.653333333333334,0)" xlink:href="#bh"/><use transform="matrix(0.017777777777777778,0,0,0.017777777777777778,19.04,0)" xlink:href="#bu"/><use transform="matrix(0.017777777777777778,0,0,0.017777777777777778,23.342222222222222,0)" xlink:href="#bh"/><use transform="matrix(0.017777777777777778,0,0,0.017777777777777778,32.72888888888889,0)" xlink:href="#bn"/><use transform="matrix(0.017777777777777778,0,0,0.017777777777777778,39.05777777777778,0)" xlink:href="#bp"/></g><g id="aL"><use transform="matrix(0.017777777777777778,0,0,0.017777777777777778,0,0)" xlink:href="#bK"/><use transform="matrix(0.017777777777777778,0,0,0.017777777777777778,12.32,0)" xlink:href="#bk"/><use transform="matrix(0.017777777777777778,0,0,0.017777777777777778,21.6,0)" xlink:href="#bq"/></g><g id="aM"><use transform="matrix(0.017777777777777778,0,0,0.017777777777777778,0,0)" xlink:href="#bh"/><use transform="matrix(0.017777777777777778,0,0,0.017777777777777778,9.386666666666667,0)" xlink:href="#bn"/><use transform="matrix(0.017777777777777778,0,0,0.017777777777777778,15.715555555555556,0)" xlink:href="#by"/><use transform="matrix(0.017777777777777778,0,0,0.017777777777777778,25.813333333333333,0)" xlink:href="#bk"/><use transform="matrix(0.017777777777777778,0,0,0.017777777777777778,35.093333333333334,0)" xlink:href="#bn"/><use transform="matrix(0.017777777777777778,0,0,0.017777777777777778,41.422222222222224,0)" xlink:href="#bj"/></g><g id="aN"><use transform="matrix(0.017777777777777778,0,0,0.017777777777777778,0,0)" xlink:href="#by"/><use transform="matrix(0.017777777777777778,0,0,0.017777777777777778,10.097777777777777,0)" xlink:href="#bj"/><use transform="matrix(0.017777777777777778,0,0,0.017777777777777778,19.11111111111111,0)" xlink:href="#bx"/><use transform="matrix(0.017777777777777778,0,0,0.017777777777777778,26.88,0)" xlink:href="#bp"/></g><g id="aO"><use transform="matrix(0.017777777777777778,0,0,0.017777777777777778,0,0)" xlink:href="#bs"/><use transform="matrix(0.017777777777777778,0,0,0.017777777777777778,8.693333333333333,0)" xlink:href="#bj"/><use transform="matrix(0.017777777777777778,0,0,0.017777777777777778,17.706666666666667,0)" xlink:href="#bk"/><use transform="matrix(0.017777777777777778,0,0,0.017777777777777778,26.98666666666666,0)" xlink:href="#bn"/><use transform="matrix(0.017777777777777778,0,0,0.017777777777777778,33.315555555555555,0)" xlink:href="#bx"/><use transform="matrix(0.017777777777777778,0,0,0.017777777777777778,41.08444444444444,0)" xlink:href="#bo"/></g></defs></g></svg>